M48
METRIC,LZ,000.000
;FILE_FORMAT=3:3
;TYPE=PLATED
;Layer: PTH_Through
;EasyEDA v6.5.48, 2025-03-31 11:01:02
;c93689d03b7b4a6a9263e186de41b3b9,93aebdfcfbe24d40a812e2b2de22b7a1,10
;Gerber Generator version 0.2
;Holesize 1 = 0.305 mm
T01C0.305
;Holesize 2 = 0.889 mm
T02C0.889
;Holesize 3 = 0.915 mm
T03C0.915
;Holesize 4 = 1.000 mm
T04C1.000
;Holesize 5 = 1.101 mm
T05C1.101
;Holesize 6 = 1.200 mm
T06C1.200
%
G05
G90
T01
X044577Y-040894
T02
X044196Y-008382
X046736Y-008382
X049276Y-008382
X051816Y-008382
X054356Y-008382
X056896Y-008382
T03
X004445Y-016129
X004445Y-018669
X004445Y-021209
X004445Y-023749
T04
X030353Y-054864
X032893Y-054864
X035433Y-054864
X037973Y-054864
X040513Y-054864
X043053Y-054864
X045593Y-054864
X048133Y-054864
X004572Y-052197
X007112Y-052197
X009652Y-052197
X012192Y-052197
X014732Y-052197
X017272Y-052197
X019812Y-052197
X022352Y-052197
T05
X064262Y-031877
X064262Y-029337
X018542Y-065151
X016002Y-065151
X013462Y-065151
X010922Y-065151
X064008Y-036957
X064008Y-039497
X064008Y-042037
X064008Y-044577
T06
X064008Y-053975
X064008Y-051435
X064008Y-048895
M30
