G04 Layer: BottomLayer*
G04 EasyEDA v6.5.48, 2025-03-31 11:01:02*
G04 c93689d03b7b4a6a9263e186de41b3b9,93aebdfcfbe24d40a812e2b2de22b7a1,10*
G04 Gerber Generator version 0.2*
G04 Scale: 100 percent, Rotated: No, Reflected: No *
G04 Dimensions in millimeters *
G04 leading zeros omitted , absolute positions ,4 integer and 5 decimal *
%FSLAX45Y45*%
%MOMM*%

%AMMACRO1*21,1,$1,$2,0,0,$3*%
%ADD10C,0.2540*%
%ADD11MACRO1,1.5747X1.5748X0.0000*%
%ADD12C,1.5748*%
%ADD13R,1.5000X1.5000*%
%ADD14C,1.5000*%
%ADD15R,1.5240X1.5240*%
%ADD16C,1.5240*%
%ADD17C,1.8000*%
%ADD18R,1.8000X1.8000*%
%ADD19R,1.8000X1.5748*%
%ADD20R,1.7000X1.7000*%
%ADD21C,1.7000*%
%ADD22C,0.6096*%

%LPD*%
D10*
X457200Y-5219700D02*
G01*
X457200Y-5116728D01*
X444500Y-1612900D02*
G01*
X444500Y-1717065D01*
X444500Y-1717065D02*
G01*
X334543Y-1827021D01*
X334543Y-4994071D01*
X457200Y-5116728D01*
X4419600Y-838200D02*
G01*
X4457700Y-876300D01*
X4457700Y-4089400D01*
X4051300Y-5486400D02*
G01*
X4673574Y-4864125D01*
X4673574Y-838200D01*
X444500Y-2374900D02*
G01*
X711200Y-2641600D01*
X711200Y-5219700D01*
X1092200Y-6515100D02*
G01*
X1092200Y-5600700D01*
X711200Y-5219700D01*
X4927574Y-838200D02*
G01*
X4927574Y-2458034D01*
X5285282Y-2815742D01*
X1219200Y-5219700D02*
G01*
X1334135Y-5104764D01*
X3161665Y-5104764D01*
X3543300Y-5486400D01*
X3362756Y-5051856D02*
G01*
X3797300Y-5486400D01*
X965200Y-5219700D02*
G01*
X1133043Y-5051856D01*
X3362756Y-5051856D01*
X3035300Y-5486400D02*
G01*
X2932328Y-5486400D01*
X1854200Y-6515100D02*
G01*
X1968500Y-6451600D01*
X1854200Y-6515100D02*
G01*
X1967179Y-6451549D01*
X2932328Y-5486400D01*
X3362756Y-5051856D02*
G01*
X3380943Y-5051856D01*
X3429000Y-5003800D01*
X3362756Y-1694179D01*
X4328744Y-728192D01*
X5071567Y-728192D01*
X5181574Y-838200D01*
X3543300Y-5486400D02*
G01*
X3661994Y-5605094D01*
X4079062Y-5605094D01*
X4178300Y-5505856D01*
X4178300Y-5447614D01*
X5285282Y-4340631D01*
X5321300Y-2882900D01*
X5321300Y-2851759D01*
X5285282Y-2815742D01*
X6426200Y-2933700D02*
G01*
X6426200Y-2819400D01*
X6413500Y-2806700D01*
X5209031Y-2806700D01*
X6426200Y-3187700D02*
G01*
X6544284Y-3069615D01*
X6544284Y-2427935D01*
X5181574Y-1065225D01*
X5181574Y-838200D01*
D11*
G01*
X4419607Y-838202D03*
D12*
G01*
X4673574Y-838200D03*
G01*
X4927574Y-838200D03*
G01*
X5181574Y-838200D03*
G01*
X5435574Y-838200D03*
G01*
X5689574Y-838200D03*
D13*
G01*
X3035300Y-5486400D03*
D14*
G01*
X3289300Y-5486400D03*
G01*
X3543300Y-5486400D03*
G01*
X3797300Y-5486400D03*
G01*
X4051300Y-5486400D03*
G01*
X4305300Y-5486400D03*
G01*
X4559300Y-5486400D03*
G01*
X4813300Y-5486400D03*
D13*
G01*
X457200Y-5219700D03*
D14*
G01*
X711200Y-5219700D03*
G01*
X965200Y-5219700D03*
G01*
X1219200Y-5219700D03*
G01*
X1473200Y-5219700D03*
G01*
X1727200Y-5219700D03*
G01*
X1981200Y-5219700D03*
G01*
X2235200Y-5219700D03*
D15*
G01*
X444500Y-1612900D03*
D16*
G01*
X444500Y-1866900D03*
G01*
X444500Y-2120900D03*
G01*
X444500Y-2374900D03*
D17*
G01*
X6426200Y-3187700D03*
D18*
G01*
X6426200Y-2933700D03*
D17*
G01*
X6400800Y-5397500D03*
G01*
X6400800Y-5143500D03*
D19*
G01*
X6400800Y-4889500D03*
D20*
G01*
X1854200Y-6515100D03*
D21*
G01*
X1600200Y-6515100D03*
G01*
X1346200Y-6515100D03*
G01*
X1092200Y-6515100D03*
D20*
G01*
X6400800Y-3695700D03*
D21*
G01*
X6400800Y-3949700D03*
G01*
X6400800Y-4203700D03*
G01*
X6400800Y-4457700D03*
D22*
G01*
X4457700Y-4089400D03*
M02*
