G04 Layer: TopSilkscreenLayer*
G04 EasyEDA v6.5.48, 2025-03-31 11:01:02*
G04 c93689d03b7b4a6a9263e186de41b3b9,93aebdfcfbe24d40a812e2b2de22b7a1,10*
G04 Gerber Generator version 0.2*
G04 Scale: 100 percent, Rotated: No, Reflected: No *
G04 Dimensions in millimeters *
G04 leading zeros omitted , absolute positions ,4 integer and 5 decimal *
%FSLAX45Y45*%
%MOMM*%

%ADD10C,0.2032*%
%ADD11C,0.1524*%
%ADD12C,0.2540*%
%ADD13C,0.2030*%

%LPD*%
G36*
X2972816Y-1629410D02*
G01*
X2967126Y-1630375D01*
X2962554Y-1633118D01*
X2959455Y-1637334D01*
X2958338Y-1642872D01*
X2959455Y-1648460D01*
X2962554Y-1652930D01*
X2967126Y-1655825D01*
X2972816Y-1656842D01*
X2978251Y-1655825D01*
X2982772Y-1652879D01*
X2985871Y-1648460D01*
X2987040Y-1642872D01*
X2985871Y-1637334D01*
X2982772Y-1633118D01*
X2978251Y-1630375D01*
G37*
G36*
X3057906Y-1631950D02*
G01*
X3053689Y-1632457D01*
X3049981Y-1633982D01*
X3046730Y-1636369D01*
X3043936Y-1639671D01*
X3041599Y-1643735D01*
X3039618Y-1648561D01*
X3038043Y-1654048D01*
X3036824Y-1660143D01*
X3041904Y-1661922D01*
X3044444Y-1654556D01*
X3047593Y-1648917D01*
X3051454Y-1645361D01*
X3056128Y-1644142D01*
X3060344Y-1645157D01*
X3064154Y-1647799D01*
X3071368Y-1655064D01*
X3074670Y-1657908D01*
X3078378Y-1660296D01*
X3082594Y-1661871D01*
X3087624Y-1662430D01*
X3091942Y-1661922D01*
X3095701Y-1660499D01*
X3099003Y-1658162D01*
X3101797Y-1654911D01*
X3104134Y-1650898D01*
X3106064Y-1646123D01*
X3107588Y-1640636D01*
X3108706Y-1634489D01*
X3103880Y-1632712D01*
X3101340Y-1640078D01*
X3098190Y-1645564D01*
X3094329Y-1649018D01*
X3089656Y-1650238D01*
X3085388Y-1649272D01*
X3081629Y-1646834D01*
X3074162Y-1639824D01*
X3070707Y-1636877D01*
X3067100Y-1634388D01*
X3062935Y-1632610D01*
G37*
G36*
X1369060Y-1638300D02*
G01*
X1362608Y-1638554D01*
X1356410Y-1639265D01*
X1350365Y-1640433D01*
X1344523Y-1642008D01*
X1338884Y-1644040D01*
X1333550Y-1646478D01*
X1328470Y-1649323D01*
X1323644Y-1652574D01*
X1319123Y-1656181D01*
X1314907Y-1660093D01*
X1311046Y-1664411D01*
X1307490Y-1669034D01*
X1304340Y-1673961D01*
X1301496Y-1679193D01*
X1299108Y-1684680D01*
X1297076Y-1690471D01*
X1295450Y-1696516D01*
X1294333Y-1702816D01*
X1293622Y-1709318D01*
X1293368Y-1716024D01*
X1293571Y-1722882D01*
X1294282Y-1729486D01*
X1295400Y-1735886D01*
X1296924Y-1741982D01*
X1298854Y-1747824D01*
X1301242Y-1753362D01*
X1303934Y-1758594D01*
X1307084Y-1763572D01*
X1310538Y-1768144D01*
X1314348Y-1772462D01*
X1318514Y-1776374D01*
X1322984Y-1779930D01*
X1327810Y-1783130D01*
X1332890Y-1785924D01*
X1338275Y-1788363D01*
X1343914Y-1790344D01*
X1349857Y-1791919D01*
X1356004Y-1793087D01*
X1362405Y-1793748D01*
X1369060Y-1794002D01*
X1374952Y-1793849D01*
X1380744Y-1793392D01*
X1386433Y-1792579D01*
X1392072Y-1791411D01*
X1397558Y-1789887D01*
X1402994Y-1788007D01*
X1408328Y-1785721D01*
X1413510Y-1783080D01*
X1414018Y-1750568D01*
X1401826Y-1750568D01*
X1396238Y-1778762D01*
X1389888Y-1781302D01*
X1383385Y-1782927D01*
X1376934Y-1783842D01*
X1370584Y-1784096D01*
X1364742Y-1783842D01*
X1359154Y-1783029D01*
X1353820Y-1781657D01*
X1348740Y-1779727D01*
X1343964Y-1777288D01*
X1339494Y-1774342D01*
X1335379Y-1770837D01*
X1331620Y-1766824D01*
X1328216Y-1762252D01*
X1325219Y-1757222D01*
X1322628Y-1751634D01*
X1320495Y-1745538D01*
X1318768Y-1738884D01*
X1317498Y-1731772D01*
X1316736Y-1724152D01*
X1316482Y-1716024D01*
X1316786Y-1707997D01*
X1317599Y-1700428D01*
X1318920Y-1693316D01*
X1320749Y-1686763D01*
X1323086Y-1680667D01*
X1325829Y-1675079D01*
X1328978Y-1669999D01*
X1332534Y-1665427D01*
X1336395Y-1661363D01*
X1340662Y-1657857D01*
X1345184Y-1654860D01*
X1350010Y-1652371D01*
X1355090Y-1650441D01*
X1360424Y-1649069D01*
X1365910Y-1648206D01*
X1371600Y-1647952D01*
X1377188Y-1648307D01*
X1382826Y-1649323D01*
X1388516Y-1651050D01*
X1394206Y-1653539D01*
X1399794Y-1681988D01*
X1411986Y-1681988D01*
X1411478Y-1649222D01*
X1406042Y-1646326D01*
X1400505Y-1643989D01*
X1395018Y-1642059D01*
X1389583Y-1640636D01*
X1384249Y-1639570D01*
X1379016Y-1638807D01*
X1373936Y-1638401D01*
G37*
G36*
X2502154Y-1641856D02*
G01*
X2500376Y-1681480D01*
X2511552Y-1681480D01*
X2517648Y-1651507D01*
X2552446Y-1651507D01*
X2552852Y-1673606D01*
X2552954Y-1736699D01*
X2552750Y-1766011D01*
X2552446Y-1780539D01*
X2529586Y-1783080D01*
X2529586Y-1790700D01*
X2596642Y-1790700D01*
X2596642Y-1783080D01*
X2573528Y-1780539D01*
X2573324Y-1751228D01*
X2573324Y-1673606D01*
X2573528Y-1651507D01*
X2608580Y-1651507D01*
X2614930Y-1681480D01*
X2625598Y-1681480D01*
X2624328Y-1641856D01*
G37*
G36*
X1707642Y-1654556D02*
G01*
X1701800Y-1684528D01*
X1681734Y-1687068D01*
X1681734Y-1694942D01*
X1700784Y-1694942D01*
X1700530Y-1767586D01*
X1700987Y-1773783D01*
X1702257Y-1779117D01*
X1704339Y-1783588D01*
X1707184Y-1787194D01*
X1710791Y-1789988D01*
X1715109Y-1791970D01*
X1720088Y-1793087D01*
X1725675Y-1793493D01*
X1733702Y-1792732D01*
X1740712Y-1790446D01*
X1746656Y-1786839D01*
X1751584Y-1782064D01*
X1747012Y-1776984D01*
X1742897Y-1779778D01*
X1739188Y-1781759D01*
X1735582Y-1782927D01*
X1731772Y-1783334D01*
X1726488Y-1782419D01*
X1722475Y-1779473D01*
X1719935Y-1774342D01*
X1719072Y-1766824D01*
X1719072Y-1694942D01*
X1749043Y-1694942D01*
X1749043Y-1685289D01*
X1719072Y-1685289D01*
X1720342Y-1654556D01*
G37*
G36*
X1985518Y-1654556D02*
G01*
X1979675Y-1684528D01*
X1959864Y-1687068D01*
X1959864Y-1694942D01*
X1978660Y-1694942D01*
X1978406Y-1767586D01*
X1978863Y-1773783D01*
X1980133Y-1779117D01*
X1982216Y-1783588D01*
X1985060Y-1787194D01*
X1988667Y-1789988D01*
X1992985Y-1791970D01*
X1997964Y-1793087D01*
X2003552Y-1793493D01*
X2011629Y-1792732D01*
X2018690Y-1790446D01*
X2024684Y-1786839D01*
X2029460Y-1782064D01*
X2024888Y-1776984D01*
X2020773Y-1779778D01*
X2017064Y-1781759D01*
X2013457Y-1782927D01*
X2009648Y-1783334D01*
X2004364Y-1782419D01*
X2000351Y-1779473D01*
X1997811Y-1774342D01*
X1996948Y-1766824D01*
X1996948Y-1694942D01*
X2026920Y-1694942D01*
X2026920Y-1685289D01*
X1997202Y-1685289D01*
X1998472Y-1654556D01*
G37*
G36*
X1484376Y-1682242D02*
G01*
X1479499Y-1682445D01*
X1474673Y-1683156D01*
X1469948Y-1684274D01*
X1465376Y-1685848D01*
X1460957Y-1687830D01*
X1456740Y-1690268D01*
X1452727Y-1693164D01*
X1449019Y-1696516D01*
X1445615Y-1700225D01*
X1442567Y-1704441D01*
X1439875Y-1709013D01*
X1437640Y-1714042D01*
X1435811Y-1719529D01*
X1434439Y-1725371D01*
X1433626Y-1731670D01*
X1433322Y-1738375D01*
X1453642Y-1738375D01*
X1453896Y-1730908D01*
X1454556Y-1724101D01*
X1455674Y-1717852D01*
X1457248Y-1712214D01*
X1459280Y-1707235D01*
X1461668Y-1702866D01*
X1464513Y-1699158D01*
X1467713Y-1696110D01*
X1471320Y-1693722D01*
X1475333Y-1691995D01*
X1479651Y-1690979D01*
X1484376Y-1690624D01*
X1489049Y-1690979D01*
X1493316Y-1691995D01*
X1497279Y-1693722D01*
X1500835Y-1696110D01*
X1504035Y-1699158D01*
X1506829Y-1702866D01*
X1509268Y-1707235D01*
X1511249Y-1712214D01*
X1512824Y-1717852D01*
X1513941Y-1724101D01*
X1514602Y-1730908D01*
X1514856Y-1738375D01*
X1514602Y-1745691D01*
X1513941Y-1752396D01*
X1512824Y-1758543D01*
X1511249Y-1764030D01*
X1509268Y-1768906D01*
X1506829Y-1773174D01*
X1504035Y-1776780D01*
X1500835Y-1779778D01*
X1497279Y-1782114D01*
X1493316Y-1783791D01*
X1489049Y-1784756D01*
X1484376Y-1785112D01*
X1479651Y-1784756D01*
X1475333Y-1783791D01*
X1471320Y-1782114D01*
X1467713Y-1779778D01*
X1464513Y-1776780D01*
X1461668Y-1773174D01*
X1459280Y-1768906D01*
X1457248Y-1764030D01*
X1455674Y-1758543D01*
X1454556Y-1752396D01*
X1453896Y-1745691D01*
X1453642Y-1738375D01*
X1433322Y-1738375D01*
X1433626Y-1745030D01*
X1434439Y-1751228D01*
X1435760Y-1757019D01*
X1437589Y-1762404D01*
X1439824Y-1767382D01*
X1442516Y-1771904D01*
X1445564Y-1775968D01*
X1448917Y-1779676D01*
X1452626Y-1782876D01*
X1456588Y-1785721D01*
X1460804Y-1788058D01*
X1465275Y-1790039D01*
X1469847Y-1791563D01*
X1474622Y-1792630D01*
X1479448Y-1793290D01*
X1484376Y-1793493D01*
X1489202Y-1793290D01*
X1494028Y-1792630D01*
X1498701Y-1791563D01*
X1503273Y-1790039D01*
X1507693Y-1788058D01*
X1511909Y-1785721D01*
X1515922Y-1782876D01*
X1519631Y-1779676D01*
X1523034Y-1775968D01*
X1526082Y-1771904D01*
X1528826Y-1767382D01*
X1531112Y-1762404D01*
X1532940Y-1757019D01*
X1534312Y-1751228D01*
X1535125Y-1745030D01*
X1535430Y-1738375D01*
X1535125Y-1731619D01*
X1534312Y-1725320D01*
X1532940Y-1719427D01*
X1531061Y-1713941D01*
X1528775Y-1708912D01*
X1526032Y-1704339D01*
X1522933Y-1700123D01*
X1519529Y-1696415D01*
X1515770Y-1693113D01*
X1511808Y-1690217D01*
X1507591Y-1687779D01*
X1503172Y-1685798D01*
X1498600Y-1684223D01*
X1493926Y-1683156D01*
X1489202Y-1682445D01*
G37*
G36*
X1629156Y-1682242D02*
G01*
X1623974Y-1682597D01*
X1618691Y-1683664D01*
X1613458Y-1685391D01*
X1608226Y-1687779D01*
X1603146Y-1690725D01*
X1598168Y-1694230D01*
X1593443Y-1698294D01*
X1589024Y-1702816D01*
X1587246Y-1684528D01*
X1584198Y-1682496D01*
X1552956Y-1694688D01*
X1552956Y-1701292D01*
X1570736Y-1703070D01*
X1571244Y-1732280D01*
X1570736Y-1781302D01*
X1554480Y-1783842D01*
X1554480Y-1790700D01*
X1605534Y-1790700D01*
X1605534Y-1783842D01*
X1590040Y-1781302D01*
X1589786Y-1710943D01*
X1598066Y-1704238D01*
X1605838Y-1699666D01*
X1613357Y-1697024D01*
X1620774Y-1696212D01*
X1625295Y-1696567D01*
X1629156Y-1697583D01*
X1632356Y-1699463D01*
X1634896Y-1702155D01*
X1636877Y-1705813D01*
X1638249Y-1710486D01*
X1639062Y-1716227D01*
X1639316Y-1723136D01*
X1639265Y-1752701D01*
X1638807Y-1781302D01*
X1622552Y-1783842D01*
X1622552Y-1790700D01*
X1673606Y-1790700D01*
X1673606Y-1783842D01*
X1658112Y-1781302D01*
X1657604Y-1743964D01*
X1657604Y-1722628D01*
X1657146Y-1712671D01*
X1655825Y-1704187D01*
X1653539Y-1697228D01*
X1650441Y-1691690D01*
X1646428Y-1687474D01*
X1641551Y-1684528D01*
X1635760Y-1682800D01*
G37*
G36*
X1829054Y-1682242D02*
G01*
X1824380Y-1682750D01*
X1819757Y-1684172D01*
X1815236Y-1686560D01*
X1810867Y-1689862D01*
X1806803Y-1693976D01*
X1802993Y-1698955D01*
X1799539Y-1704695D01*
X1796542Y-1711198D01*
X1794256Y-1684528D01*
X1791207Y-1682496D01*
X1759966Y-1694688D01*
X1759966Y-1701292D01*
X1777746Y-1703070D01*
X1778254Y-1732280D01*
X1778000Y-1781302D01*
X1761743Y-1783842D01*
X1761743Y-1790700D01*
X1815592Y-1790700D01*
X1815592Y-1783842D01*
X1797304Y-1781048D01*
X1796796Y-1743964D01*
X1796796Y-1726438D01*
X1800352Y-1717141D01*
X1804619Y-1709216D01*
X1809851Y-1702562D01*
X1816100Y-1696974D01*
X1818639Y-1699514D01*
X1821891Y-1702104D01*
X1825243Y-1704136D01*
X1828800Y-1705406D01*
X1832610Y-1705864D01*
X1838299Y-1704746D01*
X1842160Y-1701698D01*
X1844344Y-1696872D01*
X1845056Y-1690624D01*
X1842465Y-1687068D01*
X1838655Y-1684426D01*
X1834083Y-1682800D01*
G37*
G36*
X1900428Y-1682242D02*
G01*
X1892198Y-1682699D01*
X1884629Y-1684121D01*
X1877771Y-1686458D01*
X1871776Y-1689557D01*
X1866646Y-1693519D01*
X1862480Y-1698193D01*
X1859330Y-1703628D01*
X1857248Y-1709674D01*
X1858314Y-1713230D01*
X1860346Y-1715871D01*
X1863343Y-1717497D01*
X1867407Y-1718056D01*
X1871218Y-1717446D01*
X1874316Y-1715566D01*
X1876755Y-1712366D01*
X1878584Y-1707896D01*
X1882648Y-1692656D01*
X1889353Y-1691182D01*
X1895348Y-1690624D01*
X1900580Y-1690928D01*
X1905000Y-1691893D01*
X1908708Y-1693621D01*
X1911654Y-1696262D01*
X1913889Y-1699971D01*
X1915464Y-1704746D01*
X1916379Y-1710842D01*
X1916684Y-1718310D01*
X1916684Y-1725168D01*
X1903171Y-1728673D01*
X1891030Y-1732534D01*
X1881124Y-1736394D01*
X1873046Y-1740255D01*
X1866646Y-1744167D01*
X1861769Y-1748180D01*
X1858213Y-1752346D01*
X1855876Y-1756714D01*
X1854606Y-1761337D01*
X1854448Y-1763268D01*
X1873250Y-1763268D01*
X1873453Y-1760220D01*
X1874062Y-1757121D01*
X1875332Y-1753971D01*
X1877364Y-1750872D01*
X1880260Y-1747824D01*
X1884273Y-1744776D01*
X1889506Y-1741779D01*
X1896110Y-1738884D01*
X1905254Y-1735683D01*
X1916684Y-1732280D01*
X1916684Y-1767586D01*
X1908556Y-1773682D01*
X1902256Y-1777695D01*
X1896821Y-1779879D01*
X1891284Y-1780539D01*
X1884070Y-1779524D01*
X1878380Y-1776374D01*
X1874621Y-1770989D01*
X1873250Y-1763268D01*
X1854448Y-1763268D01*
X1854200Y-1766316D01*
X1854809Y-1772564D01*
X1856536Y-1778050D01*
X1859229Y-1782724D01*
X1862836Y-1786585D01*
X1867204Y-1789582D01*
X1872183Y-1791766D01*
X1877720Y-1793036D01*
X1883664Y-1793493D01*
X1888489Y-1793239D01*
X1892858Y-1792376D01*
X1896973Y-1791004D01*
X1900885Y-1789074D01*
X1904796Y-1786585D01*
X1908708Y-1783537D01*
X1912823Y-1779930D01*
X1917192Y-1775714D01*
X1919478Y-1782927D01*
X1923694Y-1788464D01*
X1929536Y-1792020D01*
X1937004Y-1793239D01*
X1942490Y-1792630D01*
X1947468Y-1790649D01*
X1951989Y-1787143D01*
X1956054Y-1781810D01*
X1951989Y-1777492D01*
X1949907Y-1779879D01*
X1947824Y-1781606D01*
X1945589Y-1782724D01*
X1943100Y-1783080D01*
X1939696Y-1782318D01*
X1937156Y-1779879D01*
X1935530Y-1775460D01*
X1934972Y-1768856D01*
X1934972Y-1720342D01*
X1934718Y-1713788D01*
X1934057Y-1707896D01*
X1932838Y-1702714D01*
X1931212Y-1698142D01*
X1929079Y-1694230D01*
X1926488Y-1690928D01*
X1923338Y-1688185D01*
X1919782Y-1685950D01*
X1915668Y-1684324D01*
X1911096Y-1683156D01*
X1906016Y-1682445D01*
G37*
G36*
X2091436Y-1682242D02*
G01*
X2086356Y-1682496D01*
X2081377Y-1683257D01*
X2076551Y-1684528D01*
X2071878Y-1686255D01*
X2067458Y-1688388D01*
X2063242Y-1691030D01*
X2059279Y-1694078D01*
X2055622Y-1697583D01*
X2052269Y-1701444D01*
X2049322Y-1705711D01*
X2046681Y-1710334D01*
X2044496Y-1715363D01*
X2042718Y-1720697D01*
X2041448Y-1726387D01*
X2041163Y-1728470D01*
X2060193Y-1728470D01*
X2061565Y-1719275D01*
X2063953Y-1711401D01*
X2067153Y-1704898D01*
X2071014Y-1699666D01*
X2075434Y-1695653D01*
X2080209Y-1692808D01*
X2085289Y-1691182D01*
X2090420Y-1690624D01*
X2095652Y-1691182D01*
X2100376Y-1692757D01*
X2104593Y-1695196D01*
X2108149Y-1698447D01*
X2111095Y-1702307D01*
X2113229Y-1706676D01*
X2114600Y-1711502D01*
X2115058Y-1716532D01*
X2114550Y-1721561D01*
X2112721Y-1725523D01*
X2109063Y-1728063D01*
X2103120Y-1728978D01*
X2060193Y-1728470D01*
X2041163Y-1728470D01*
X2040636Y-1732330D01*
X2040382Y-1738630D01*
X2040636Y-1744980D01*
X2041296Y-1750974D01*
X2042464Y-1756613D01*
X2044039Y-1761896D01*
X2046020Y-1766773D01*
X2048408Y-1771294D01*
X2051151Y-1775409D01*
X2054301Y-1779117D01*
X2057755Y-1782419D01*
X2061565Y-1785315D01*
X2065731Y-1787753D01*
X2070150Y-1789836D01*
X2074925Y-1791411D01*
X2079904Y-1792579D01*
X2085187Y-1793239D01*
X2090674Y-1793493D01*
X2097735Y-1793036D01*
X2104339Y-1791716D01*
X2110384Y-1789633D01*
X2115921Y-1786686D01*
X2120900Y-1783029D01*
X2125370Y-1778711D01*
X2129231Y-1773682D01*
X2132584Y-1768093D01*
X2128266Y-1765046D01*
X2122119Y-1771599D01*
X2115108Y-1776679D01*
X2106930Y-1779879D01*
X2097024Y-1781048D01*
X2091689Y-1780743D01*
X2086711Y-1779828D01*
X2082088Y-1778304D01*
X2077821Y-1776120D01*
X2073960Y-1773377D01*
X2070506Y-1769973D01*
X2067458Y-1766011D01*
X2064918Y-1761388D01*
X2062886Y-1756206D01*
X2061362Y-1750364D01*
X2060346Y-1743913D01*
X2059939Y-1736852D01*
X2131568Y-1737106D01*
X2132736Y-1731670D01*
X2133092Y-1724660D01*
X2132736Y-1718310D01*
X2131669Y-1712417D01*
X2129942Y-1706981D01*
X2127605Y-1702054D01*
X2124659Y-1697583D01*
X2121204Y-1693621D01*
X2117242Y-1690268D01*
X2112822Y-1687423D01*
X2107996Y-1685188D01*
X2102815Y-1683562D01*
X2097278Y-1682597D01*
G37*
G36*
X2227072Y-1682242D02*
G01*
X2221890Y-1682597D01*
X2216658Y-1683664D01*
X2211425Y-1685391D01*
X2206294Y-1687779D01*
X2201214Y-1690725D01*
X2196338Y-1694230D01*
X2191613Y-1698294D01*
X2187194Y-1702816D01*
X2185416Y-1684528D01*
X2182368Y-1682496D01*
X2150872Y-1694688D01*
X2150872Y-1701292D01*
X2168652Y-1703070D01*
X2169109Y-1716328D01*
X2168906Y-1781302D01*
X2152396Y-1783842D01*
X2152396Y-1790700D01*
X2203704Y-1790700D01*
X2203704Y-1783842D01*
X2188210Y-1781302D01*
X2187702Y-1743964D01*
X2187702Y-1710943D01*
X2196084Y-1704238D01*
X2203907Y-1699666D01*
X2211425Y-1697024D01*
X2218944Y-1696212D01*
X2223465Y-1696567D01*
X2227275Y-1697583D01*
X2230424Y-1699463D01*
X2232964Y-1702155D01*
X2234844Y-1705813D01*
X2236216Y-1710486D01*
X2236978Y-1716227D01*
X2237232Y-1723136D01*
X2236978Y-1781302D01*
X2220468Y-1783842D01*
X2220468Y-1790700D01*
X2271776Y-1790700D01*
X2271776Y-1783842D01*
X2256028Y-1781302D01*
X2255520Y-1743964D01*
X2255520Y-1722628D01*
X2255062Y-1712671D01*
X2253742Y-1704187D01*
X2251557Y-1697228D01*
X2248458Y-1691690D01*
X2244445Y-1687474D01*
X2239568Y-1684528D01*
X2233777Y-1682800D01*
G37*
G36*
X2386584Y-1682242D02*
G01*
X2378354Y-1682699D01*
X2370785Y-1684121D01*
X2363978Y-1686458D01*
X2357983Y-1689557D01*
X2352903Y-1693519D01*
X2348738Y-1698193D01*
X2345639Y-1703628D01*
X2343658Y-1709674D01*
X2344572Y-1713230D01*
X2346502Y-1715871D01*
X2349500Y-1717497D01*
X2353564Y-1718056D01*
X2357424Y-1717446D01*
X2360574Y-1715566D01*
X2363012Y-1712366D01*
X2364740Y-1707896D01*
X2369058Y-1692656D01*
X2375560Y-1691182D01*
X2381504Y-1690624D01*
X2386787Y-1690928D01*
X2391257Y-1691893D01*
X2394966Y-1693621D01*
X2397861Y-1696262D01*
X2400096Y-1699971D01*
X2401671Y-1704746D01*
X2402535Y-1710842D01*
X2402840Y-1718310D01*
X2402840Y-1725168D01*
X2396134Y-1726793D01*
X2383180Y-1730603D01*
X2377440Y-1732534D01*
X2367483Y-1736394D01*
X2359355Y-1740255D01*
X2352954Y-1744167D01*
X2348077Y-1748180D01*
X2344572Y-1752346D01*
X2342235Y-1756714D01*
X2341016Y-1761337D01*
X2340858Y-1763268D01*
X2359406Y-1763268D01*
X2359609Y-1760220D01*
X2360269Y-1757121D01*
X2361539Y-1753971D01*
X2363622Y-1750872D01*
X2366619Y-1747824D01*
X2370632Y-1744776D01*
X2375916Y-1741779D01*
X2382520Y-1738884D01*
X2391511Y-1735683D01*
X2402840Y-1732280D01*
X2402840Y-1767586D01*
X2394864Y-1773682D01*
X2388616Y-1777695D01*
X2383129Y-1779879D01*
X2377440Y-1780539D01*
X2370328Y-1779524D01*
X2364638Y-1776374D01*
X2360777Y-1770989D01*
X2359406Y-1763268D01*
X2340858Y-1763268D01*
X2340610Y-1766316D01*
X2341219Y-1772564D01*
X2342946Y-1778050D01*
X2345639Y-1782724D01*
X2349246Y-1786585D01*
X2353614Y-1789582D01*
X2358593Y-1791766D01*
X2364130Y-1793036D01*
X2370074Y-1793493D01*
X2374849Y-1793239D01*
X2379218Y-1792376D01*
X2383282Y-1791004D01*
X2387193Y-1789074D01*
X2391003Y-1786585D01*
X2394915Y-1783537D01*
X2403348Y-1775714D01*
X2405634Y-1782927D01*
X2409850Y-1788464D01*
X2415692Y-1792020D01*
X2423160Y-1793239D01*
X2428798Y-1792630D01*
X2433878Y-1790649D01*
X2438400Y-1787143D01*
X2442464Y-1781810D01*
X2438400Y-1777492D01*
X2436215Y-1779879D01*
X2434132Y-1781606D01*
X2431846Y-1782724D01*
X2429256Y-1783080D01*
X2425852Y-1782318D01*
X2423261Y-1779879D01*
X2421686Y-1775460D01*
X2421128Y-1768856D01*
X2421128Y-1720342D01*
X2420874Y-1713788D01*
X2420213Y-1707896D01*
X2418994Y-1702714D01*
X2417368Y-1698142D01*
X2415235Y-1694230D01*
X2412593Y-1690928D01*
X2409494Y-1688185D01*
X2405938Y-1685950D01*
X2401824Y-1684324D01*
X2397252Y-1683156D01*
X2392172Y-1682445D01*
G37*
G36*
X2700020Y-1682242D02*
G01*
X2695346Y-1682750D01*
X2690723Y-1684172D01*
X2686202Y-1686560D01*
X2681884Y-1689862D01*
X2677769Y-1693976D01*
X2673959Y-1698955D01*
X2670505Y-1704695D01*
X2667508Y-1711198D01*
X2665222Y-1684528D01*
X2662174Y-1682496D01*
X2630932Y-1694688D01*
X2630932Y-1701292D01*
X2648712Y-1703070D01*
X2649220Y-1732280D01*
X2648712Y-1781302D01*
X2632456Y-1783842D01*
X2632456Y-1790700D01*
X2686558Y-1790700D01*
X2686558Y-1783842D01*
X2668016Y-1781048D01*
X2667762Y-1726438D01*
X2671318Y-1717141D01*
X2675585Y-1709216D01*
X2680817Y-1702562D01*
X2687066Y-1696974D01*
X2689606Y-1699514D01*
X2692857Y-1702104D01*
X2696210Y-1704136D01*
X2699766Y-1705406D01*
X2703576Y-1705864D01*
X2709265Y-1704746D01*
X2713126Y-1701698D01*
X2715310Y-1696872D01*
X2716022Y-1690624D01*
X2713431Y-1687068D01*
X2709621Y-1684426D01*
X2705049Y-1682800D01*
G37*
G36*
X2775712Y-1682242D02*
G01*
X2770632Y-1682496D01*
X2765653Y-1683257D01*
X2760827Y-1684528D01*
X2756204Y-1686255D01*
X2751785Y-1688388D01*
X2747568Y-1691030D01*
X2743657Y-1694078D01*
X2740050Y-1697583D01*
X2736697Y-1701444D01*
X2733751Y-1705711D01*
X2731160Y-1710334D01*
X2728976Y-1715363D01*
X2727248Y-1720697D01*
X2725978Y-1726387D01*
X2725693Y-1728470D01*
X2744470Y-1728470D01*
X2745892Y-1719275D01*
X2748280Y-1711401D01*
X2751480Y-1704898D01*
X2755392Y-1699666D01*
X2759811Y-1695653D01*
X2764637Y-1692808D01*
X2769616Y-1691182D01*
X2774696Y-1690624D01*
X2779928Y-1691182D01*
X2784652Y-1692757D01*
X2788869Y-1695196D01*
X2792425Y-1698447D01*
X2795371Y-1702307D01*
X2797505Y-1706676D01*
X2798876Y-1711502D01*
X2799334Y-1716532D01*
X2798826Y-1721561D01*
X2796997Y-1725523D01*
X2793339Y-1728063D01*
X2787396Y-1728978D01*
X2744470Y-1728470D01*
X2725693Y-1728470D01*
X2725166Y-1732330D01*
X2724912Y-1738630D01*
X2725166Y-1744980D01*
X2725826Y-1750974D01*
X2726994Y-1756613D01*
X2728569Y-1761896D01*
X2730550Y-1766773D01*
X2732887Y-1771294D01*
X2735681Y-1775409D01*
X2738780Y-1779117D01*
X2742234Y-1782419D01*
X2746044Y-1785315D01*
X2750159Y-1787753D01*
X2754579Y-1789836D01*
X2759303Y-1791411D01*
X2764282Y-1792579D01*
X2769514Y-1793239D01*
X2774950Y-1793493D01*
X2782112Y-1793036D01*
X2788767Y-1791716D01*
X2794863Y-1789633D01*
X2800400Y-1786686D01*
X2805430Y-1783029D01*
X2809900Y-1778711D01*
X2813761Y-1773682D01*
X2817114Y-1768093D01*
X2812542Y-1765046D01*
X2806395Y-1771599D01*
X2799486Y-1776679D01*
X2791307Y-1779879D01*
X2781300Y-1781048D01*
X2775966Y-1780743D01*
X2770987Y-1779828D01*
X2766364Y-1778304D01*
X2762097Y-1776120D01*
X2758236Y-1773377D01*
X2754731Y-1769973D01*
X2751734Y-1766011D01*
X2749194Y-1761388D01*
X2747162Y-1756206D01*
X2745638Y-1750364D01*
X2744622Y-1743913D01*
X2744216Y-1736852D01*
X2815844Y-1737106D01*
X2816504Y-1734566D01*
X2817266Y-1728317D01*
X2817368Y-1724660D01*
X2817012Y-1718310D01*
X2815945Y-1712417D01*
X2814269Y-1706981D01*
X2811932Y-1702054D01*
X2809036Y-1697583D01*
X2805582Y-1693621D01*
X2801620Y-1690268D01*
X2797251Y-1687423D01*
X2792425Y-1685188D01*
X2787192Y-1683562D01*
X2781604Y-1682597D01*
G37*
G36*
X3089148Y-1682242D02*
G01*
X3083966Y-1682597D01*
X3078683Y-1683664D01*
X3073450Y-1685391D01*
X3068218Y-1687779D01*
X3063138Y-1690725D01*
X3058160Y-1694230D01*
X3053435Y-1698294D01*
X3049016Y-1702816D01*
X3047238Y-1684528D01*
X3044190Y-1682496D01*
X3012948Y-1694688D01*
X3012948Y-1701292D01*
X3030728Y-1703070D01*
X3031236Y-1732280D01*
X3030728Y-1781302D01*
X3014472Y-1783842D01*
X3014472Y-1790700D01*
X3065526Y-1790700D01*
X3065526Y-1783842D01*
X3050032Y-1781302D01*
X3049778Y-1710943D01*
X3058058Y-1704238D01*
X3065830Y-1699666D01*
X3073349Y-1697024D01*
X3080766Y-1696212D01*
X3085287Y-1696567D01*
X3089148Y-1697583D01*
X3092348Y-1699463D01*
X3094888Y-1702155D01*
X3096869Y-1705813D01*
X3098241Y-1710486D01*
X3099054Y-1716227D01*
X3099308Y-1723136D01*
X3099257Y-1752701D01*
X3098800Y-1781302D01*
X3082544Y-1783842D01*
X3082544Y-1790700D01*
X3133598Y-1790700D01*
X3133598Y-1783842D01*
X3118104Y-1781302D01*
X3117596Y-1743964D01*
X3117596Y-1722628D01*
X3117138Y-1712671D01*
X3115818Y-1704187D01*
X3113532Y-1697228D01*
X3110433Y-1691690D01*
X3106420Y-1687474D01*
X3101543Y-1684528D01*
X3095752Y-1682800D01*
G37*
G36*
X3201416Y-1682242D02*
G01*
X3196539Y-1682445D01*
X3191713Y-1683156D01*
X3186988Y-1684274D01*
X3182416Y-1685848D01*
X3177997Y-1687830D01*
X3173780Y-1690268D01*
X3169767Y-1693164D01*
X3166059Y-1696516D01*
X3162655Y-1700225D01*
X3159607Y-1704441D01*
X3156915Y-1709013D01*
X3154680Y-1714042D01*
X3152851Y-1719529D01*
X3151479Y-1725371D01*
X3150666Y-1731670D01*
X3150362Y-1738375D01*
X3170682Y-1738375D01*
X3170936Y-1730908D01*
X3171596Y-1724101D01*
X3172714Y-1717852D01*
X3174288Y-1712214D01*
X3176320Y-1707235D01*
X3178708Y-1702866D01*
X3181553Y-1699158D01*
X3184753Y-1696110D01*
X3188360Y-1693722D01*
X3192373Y-1691995D01*
X3196691Y-1690979D01*
X3201416Y-1690624D01*
X3206089Y-1690979D01*
X3210356Y-1691995D01*
X3214319Y-1693722D01*
X3217875Y-1696110D01*
X3221075Y-1699158D01*
X3223920Y-1702866D01*
X3226308Y-1707235D01*
X3228289Y-1712214D01*
X3229864Y-1717852D01*
X3230981Y-1724101D01*
X3231642Y-1730908D01*
X3231896Y-1738375D01*
X3231642Y-1745691D01*
X3230981Y-1752396D01*
X3229864Y-1758543D01*
X3228289Y-1764030D01*
X3226308Y-1768906D01*
X3223920Y-1773174D01*
X3221075Y-1776780D01*
X3217875Y-1779778D01*
X3214319Y-1782114D01*
X3210356Y-1783791D01*
X3206089Y-1784756D01*
X3201416Y-1785112D01*
X3196691Y-1784756D01*
X3192373Y-1783791D01*
X3188360Y-1782114D01*
X3184753Y-1779778D01*
X3181553Y-1776780D01*
X3178708Y-1773174D01*
X3176320Y-1768906D01*
X3174288Y-1764030D01*
X3172714Y-1758543D01*
X3171596Y-1752396D01*
X3170936Y-1745691D01*
X3170682Y-1738375D01*
X3150362Y-1738375D01*
X3150666Y-1745030D01*
X3151479Y-1751228D01*
X3152800Y-1757019D01*
X3154629Y-1762404D01*
X3156864Y-1767382D01*
X3159556Y-1771904D01*
X3162604Y-1775968D01*
X3165957Y-1779676D01*
X3169666Y-1782876D01*
X3173628Y-1785721D01*
X3177844Y-1788058D01*
X3182315Y-1790039D01*
X3186887Y-1791563D01*
X3191662Y-1792630D01*
X3196488Y-1793290D01*
X3201416Y-1793493D01*
X3206242Y-1793290D01*
X3211068Y-1792630D01*
X3215741Y-1791563D01*
X3220313Y-1790039D01*
X3224733Y-1788058D01*
X3228949Y-1785721D01*
X3232962Y-1782876D01*
X3236671Y-1779676D01*
X3240074Y-1775968D01*
X3243122Y-1771904D01*
X3245866Y-1767382D01*
X3248152Y-1762404D01*
X3249980Y-1757019D01*
X3251352Y-1751228D01*
X3252165Y-1745030D01*
X3252470Y-1738375D01*
X3252165Y-1731619D01*
X3251352Y-1725320D01*
X3249980Y-1719427D01*
X3248101Y-1713941D01*
X3245815Y-1708912D01*
X3243072Y-1704339D01*
X3239973Y-1700123D01*
X3236569Y-1696415D01*
X3232810Y-1693113D01*
X3228848Y-1690217D01*
X3224631Y-1687779D01*
X3220212Y-1685798D01*
X3215640Y-1684223D01*
X3210966Y-1683156D01*
X3206242Y-1682445D01*
G37*
G36*
X2979420Y-1682496D02*
G01*
X2945384Y-1694434D01*
X2945384Y-1701038D01*
X2963418Y-1702816D01*
X2963926Y-1732280D01*
X2963672Y-1781302D01*
X2946400Y-1783842D01*
X2946400Y-1790700D01*
X2997708Y-1790700D01*
X2997708Y-1783842D01*
X2982468Y-1781302D01*
X2981960Y-1743964D01*
X2981960Y-1713992D01*
X2982468Y-1684528D01*
G37*
G36*
X2825750Y-1685289D02*
G01*
X2825750Y-1692656D01*
X2838450Y-1694434D01*
X2878328Y-1792224D01*
X2887472Y-1792224D01*
X2924048Y-1695450D01*
X2936494Y-1692656D01*
X2936494Y-1685289D01*
X2895600Y-1685289D01*
X2895600Y-1692656D01*
X2913888Y-1695450D01*
X2887980Y-1769872D01*
X2859786Y-1694688D01*
X2879090Y-1692656D01*
X2879090Y-1685289D01*
G37*
D10*
X1945386Y-1308607D02*
G01*
X1926844Y-1290065D01*
X1899157Y-1280921D01*
X1862328Y-1280921D01*
X1834642Y-1290065D01*
X1816100Y-1308607D01*
X1816100Y-1327150D01*
X1825244Y-1345437D01*
X1834642Y-1354836D01*
X1852929Y-1363979D01*
X1908555Y-1382521D01*
X1926844Y-1391665D01*
X1936241Y-1400810D01*
X1945386Y-1419352D01*
X1945386Y-1447037D01*
X1926844Y-1465579D01*
X1899157Y-1474723D01*
X1862328Y-1474723D01*
X1834642Y-1465579D01*
X1816100Y-1447037D01*
X2006345Y-1280921D02*
G01*
X2006345Y-1474723D01*
X2006345Y-1280921D02*
G01*
X2089404Y-1280921D01*
X2117090Y-1290065D01*
X2126488Y-1299210D01*
X2135631Y-1317752D01*
X2135631Y-1345437D01*
X2126488Y-1363979D01*
X2117090Y-1373123D01*
X2089404Y-1382521D01*
X2006345Y-1382521D01*
X2270506Y-1280921D02*
G01*
X2196591Y-1474723D01*
X2270506Y-1280921D02*
G01*
X2344420Y-1474723D01*
X2224277Y-1410207D02*
G01*
X2316734Y-1410207D01*
X2405379Y-1280921D02*
G01*
X2405379Y-1474723D01*
X2405379Y-1280921D02*
G01*
X2479293Y-1474723D01*
X2553208Y-1280921D02*
G01*
X2479293Y-1474723D01*
X2553208Y-1280921D02*
G01*
X2553208Y-1474723D01*
X2623311Y-1363979D02*
G01*
X2614168Y-1373123D01*
X2623311Y-1382521D01*
X2632709Y-1373123D01*
X2623311Y-1363979D01*
X2623311Y-1428750D02*
G01*
X2614168Y-1437894D01*
X2623311Y-1447037D01*
X2632709Y-1437894D01*
X2623311Y-1428750D01*
D11*
X5053916Y-414781D02*
G01*
X5053916Y-523747D01*
X5053916Y-414781D02*
G01*
X5100652Y-414781D01*
X5116146Y-419862D01*
X5121480Y-425195D01*
X5126560Y-435610D01*
X5126560Y-446023D01*
X5121480Y-456437D01*
X5116146Y-461518D01*
X5100652Y-466597D01*
X5053916Y-466597D02*
G01*
X5100652Y-466597D01*
X5116146Y-471931D01*
X5121480Y-477012D01*
X5126560Y-487426D01*
X5126560Y-503173D01*
X5121480Y-513587D01*
X5116146Y-518668D01*
X5100652Y-523747D01*
X5053916Y-523747D01*
X5160850Y-414781D02*
G01*
X5160850Y-523747D01*
X5160850Y-414781D02*
G01*
X5202506Y-523747D01*
X5244162Y-414781D02*
G01*
X5202506Y-523747D01*
X5244162Y-414781D02*
G01*
X5244162Y-523747D01*
X5278452Y-414781D02*
G01*
X5278452Y-523747D01*
X5278452Y-414781D02*
G01*
X5325188Y-414781D01*
X5340682Y-419862D01*
X5346016Y-425195D01*
X5351096Y-435610D01*
X5351096Y-451104D01*
X5346016Y-461518D01*
X5340682Y-466597D01*
X5325188Y-471931D01*
X5278452Y-471931D01*
X5390466Y-440689D02*
G01*
X5390466Y-435610D01*
X5395800Y-425195D01*
X5400880Y-419862D01*
X5411294Y-414781D01*
X5432122Y-414781D01*
X5442536Y-419862D01*
X5447616Y-425195D01*
X5452950Y-435610D01*
X5452950Y-446023D01*
X5447616Y-456437D01*
X5437456Y-471931D01*
X5385386Y-523747D01*
X5458030Y-523747D01*
X5518482Y-414781D02*
G01*
X5502734Y-419862D01*
X5497654Y-430276D01*
X5497654Y-440689D01*
X5502734Y-451104D01*
X5513148Y-456437D01*
X5533976Y-461518D01*
X5549470Y-466597D01*
X5559884Y-477012D01*
X5565218Y-487426D01*
X5565218Y-503173D01*
X5559884Y-513587D01*
X5554804Y-518668D01*
X5539056Y-523747D01*
X5518482Y-523747D01*
X5502734Y-518668D01*
X5497654Y-513587D01*
X5492320Y-503173D01*
X5492320Y-487426D01*
X5497654Y-477012D01*
X5508068Y-466597D01*
X5523562Y-461518D01*
X5544390Y-456437D01*
X5554804Y-451104D01*
X5559884Y-440689D01*
X5559884Y-430276D01*
X5554804Y-419862D01*
X5539056Y-414781D01*
X5518482Y-414781D01*
X5630496Y-414781D02*
G01*
X5615002Y-419862D01*
X5604588Y-435610D01*
X5599508Y-461518D01*
X5599508Y-477012D01*
X5604588Y-503173D01*
X5615002Y-518668D01*
X5630496Y-523747D01*
X5640910Y-523747D01*
X5656658Y-518668D01*
X5667072Y-503173D01*
X5672152Y-477012D01*
X5672152Y-461518D01*
X5667072Y-435610D01*
X5656658Y-419862D01*
X5640910Y-414781D01*
X5630496Y-414781D01*
X3926077Y-5866892D02*
G01*
X3920743Y-5856478D01*
X3910329Y-5846063D01*
X3900170Y-5840984D01*
X3879341Y-5840984D01*
X3868927Y-5846063D01*
X3858513Y-5856478D01*
X3853179Y-5866892D01*
X3848100Y-5882639D01*
X3848100Y-5908547D01*
X3853179Y-5924042D01*
X3858513Y-5934455D01*
X3868927Y-5944870D01*
X3879341Y-5949950D01*
X3900170Y-5949950D01*
X3910329Y-5944870D01*
X3920743Y-5934455D01*
X3926077Y-5924042D01*
X4038345Y-5866892D02*
G01*
X4033011Y-5856478D01*
X4022597Y-5846063D01*
X4012184Y-5840984D01*
X3991609Y-5840984D01*
X3981195Y-5846063D01*
X3970781Y-5856478D01*
X3965447Y-5866892D01*
X3960368Y-5882639D01*
X3960368Y-5908547D01*
X3965447Y-5924042D01*
X3970781Y-5934455D01*
X3981195Y-5944870D01*
X3991609Y-5949950D01*
X4012184Y-5949950D01*
X4022597Y-5944870D01*
X4033011Y-5934455D01*
X4038345Y-5924042D01*
X4145279Y-5856478D02*
G01*
X4134865Y-5846063D01*
X4119372Y-5840984D01*
X4098543Y-5840984D01*
X4083050Y-5846063D01*
X4072636Y-5856478D01*
X4072636Y-5866892D01*
X4077715Y-5877305D01*
X4083050Y-5882639D01*
X4093209Y-5887720D01*
X4124452Y-5898134D01*
X4134865Y-5903213D01*
X4140200Y-5908547D01*
X4145279Y-5918962D01*
X4145279Y-5934455D01*
X4134865Y-5944870D01*
X4119372Y-5949950D01*
X4098543Y-5949950D01*
X4083050Y-5944870D01*
X4072636Y-5934455D01*
X4205477Y-5840984D02*
G01*
X4189984Y-5846063D01*
X4184650Y-5856478D01*
X4184650Y-5866892D01*
X4189984Y-5877305D01*
X4200397Y-5882639D01*
X4221225Y-5887720D01*
X4236720Y-5892800D01*
X4247134Y-5903213D01*
X4252213Y-5913628D01*
X4252213Y-5929376D01*
X4247134Y-5939789D01*
X4241800Y-5944870D01*
X4226306Y-5949950D01*
X4205477Y-5949950D01*
X4189984Y-5944870D01*
X4184650Y-5939789D01*
X4179570Y-5929376D01*
X4179570Y-5913628D01*
X4184650Y-5903213D01*
X4195063Y-5892800D01*
X4210811Y-5887720D01*
X4231640Y-5882639D01*
X4241800Y-5877305D01*
X4247134Y-5866892D01*
X4247134Y-5856478D01*
X4241800Y-5846063D01*
X4226306Y-5840984D01*
X4205477Y-5840984D01*
X4286504Y-5861812D02*
G01*
X4296918Y-5856478D01*
X4312665Y-5840984D01*
X4312665Y-5949950D01*
X4346956Y-5861812D02*
G01*
X4357370Y-5856478D01*
X4372863Y-5840984D01*
X4372863Y-5949950D01*
X1193800Y-5459984D02*
G01*
X1193800Y-5568950D01*
X1228089Y-5459984D02*
G01*
X1228089Y-5568950D01*
X1228089Y-5459984D02*
G01*
X1269745Y-5568950D01*
X1311147Y-5459984D02*
G01*
X1269745Y-5568950D01*
X1311147Y-5459984D02*
G01*
X1311147Y-5568950D01*
X1345437Y-5459984D02*
G01*
X1345437Y-5537962D01*
X1350771Y-5553455D01*
X1361186Y-5563870D01*
X1376679Y-5568950D01*
X1387094Y-5568950D01*
X1402587Y-5563870D01*
X1413002Y-5553455D01*
X1418336Y-5537962D01*
X1418336Y-5459984D01*
X1452626Y-5480812D02*
G01*
X1463039Y-5475478D01*
X1478534Y-5459984D01*
X1478534Y-5568950D01*
X2135377Y-558292D02*
G01*
X2130043Y-547878D01*
X2119629Y-537463D01*
X2109470Y-532384D01*
X2088641Y-532384D01*
X2078227Y-537463D01*
X2067813Y-547878D01*
X2062479Y-558292D01*
X2057400Y-574039D01*
X2057400Y-599947D01*
X2062479Y-615442D01*
X2067813Y-625855D01*
X2078227Y-636270D01*
X2088641Y-641350D01*
X2109470Y-641350D01*
X2119629Y-636270D01*
X2130043Y-625855D01*
X2135377Y-615442D01*
X2135377Y-599947D01*
X2109470Y-599947D02*
G01*
X2135377Y-599947D01*
X2169668Y-532384D02*
G01*
X2169668Y-641350D01*
X2169668Y-532384D02*
G01*
X2216404Y-532384D01*
X2231897Y-537463D01*
X2237231Y-542797D01*
X2242311Y-553212D01*
X2242311Y-568705D01*
X2237231Y-579120D01*
X2231897Y-584200D01*
X2216404Y-589534D01*
X2169668Y-589534D01*
X2349500Y-547878D02*
G01*
X2339086Y-537463D01*
X2323338Y-532384D01*
X2302509Y-532384D01*
X2287015Y-537463D01*
X2276602Y-547878D01*
X2276602Y-558292D01*
X2281936Y-568705D01*
X2287015Y-574039D01*
X2297429Y-579120D01*
X2328672Y-589534D01*
X2339086Y-594613D01*
X2344165Y-599947D01*
X2349500Y-610362D01*
X2349500Y-625855D01*
X2339086Y-636270D01*
X2323338Y-641350D01*
X2302509Y-641350D01*
X2287015Y-636270D01*
X2276602Y-625855D01*
X2383790Y-553212D02*
G01*
X2393950Y-547878D01*
X2409697Y-532384D01*
X2409697Y-641350D01*
X546100Y-1568957D02*
G01*
X575563Y-1646681D01*
X605281Y-1568957D02*
G01*
X575563Y-1646681D01*
X685037Y-1587500D02*
G01*
X681228Y-1580134D01*
X673862Y-1572768D01*
X666495Y-1568957D01*
X651763Y-1568957D01*
X644397Y-1572768D01*
X637031Y-1580134D01*
X633221Y-1587500D01*
X629665Y-1598421D01*
X629665Y-1616963D01*
X633221Y-1628139D01*
X637031Y-1635505D01*
X644397Y-1642871D01*
X651763Y-1646681D01*
X666495Y-1646681D01*
X673862Y-1642871D01*
X681228Y-1635505D01*
X685037Y-1628139D01*
X764794Y-1587500D02*
G01*
X761237Y-1580134D01*
X753618Y-1572768D01*
X746252Y-1568957D01*
X731520Y-1568957D01*
X724154Y-1572768D01*
X716787Y-1580134D01*
X712978Y-1587500D01*
X709421Y-1598421D01*
X709421Y-1616963D01*
X712978Y-1628139D01*
X716787Y-1635505D01*
X724154Y-1642871D01*
X731520Y-1646681D01*
X746252Y-1646681D01*
X753618Y-1642871D01*
X761237Y-1635505D01*
X764794Y-1628139D01*
X614171Y-2349500D02*
G01*
X610615Y-2342134D01*
X603250Y-2334768D01*
X595629Y-2330957D01*
X580897Y-2330957D01*
X573531Y-2334768D01*
X566165Y-2342134D01*
X562610Y-2349500D01*
X558800Y-2360421D01*
X558800Y-2378963D01*
X562610Y-2390139D01*
X566165Y-2397505D01*
X573531Y-2404871D01*
X580897Y-2408681D01*
X595629Y-2408681D01*
X603250Y-2404871D01*
X610615Y-2397505D01*
X614171Y-2390139D01*
X614171Y-2378963D01*
X595629Y-2378963D02*
G01*
X614171Y-2378963D01*
X638555Y-2330957D02*
G01*
X638555Y-2408681D01*
X638555Y-2330957D02*
G01*
X690371Y-2408681D01*
X690371Y-2330957D02*
G01*
X690371Y-2408681D01*
X714755Y-2330957D02*
G01*
X714755Y-2408681D01*
X714755Y-2330957D02*
G01*
X740663Y-2330957D01*
X751586Y-2334768D01*
X758952Y-2342134D01*
X762762Y-2349500D01*
X766318Y-2360421D01*
X766318Y-2378963D01*
X762762Y-2390139D01*
X758952Y-2397505D01*
X751586Y-2404871D01*
X740663Y-2408681D01*
X714755Y-2408681D01*
X584707Y-2076957D02*
G01*
X584707Y-2154681D01*
X558800Y-2076957D02*
G01*
X610615Y-2076957D01*
X635000Y-2076957D02*
G01*
X686562Y-2154681D01*
X686562Y-2076957D02*
G01*
X635000Y-2154681D01*
X558800Y-1822957D02*
G01*
X558800Y-1900681D01*
X558800Y-1822957D02*
G01*
X592073Y-1822957D01*
X603250Y-1826768D01*
X606805Y-1830323D01*
X610615Y-1837689D01*
X610615Y-1845055D01*
X606805Y-1852421D01*
X603250Y-1856231D01*
X592073Y-1860042D01*
X558800Y-1860042D01*
X584707Y-1860042D02*
G01*
X610615Y-1900681D01*
X635000Y-1822957D02*
G01*
X686562Y-1900681D01*
X686562Y-1822957D02*
G01*
X635000Y-1900681D01*
X6706615Y-3048000D02*
G01*
X6597650Y-3048000D01*
X6680708Y-3087370D02*
G01*
X6685788Y-3087370D01*
X6696202Y-3092704D01*
X6701536Y-3097784D01*
X6706615Y-3108197D01*
X6706615Y-3129026D01*
X6701536Y-3139439D01*
X6696202Y-3144520D01*
X6685788Y-3149854D01*
X6675374Y-3149854D01*
X6664959Y-3144520D01*
X6649465Y-3134360D01*
X6597650Y-3082289D01*
X6597650Y-3154934D01*
X6680708Y-3267202D02*
G01*
X6691122Y-3262121D01*
X6701536Y-3251707D01*
X6706615Y-3241294D01*
X6706615Y-3220465D01*
X6701536Y-3210052D01*
X6691122Y-3199637D01*
X6680708Y-3194557D01*
X6664959Y-3189223D01*
X6639052Y-3189223D01*
X6623558Y-3194557D01*
X6613143Y-3199637D01*
X6602729Y-3210052D01*
X6597650Y-3220465D01*
X6597650Y-3241294D01*
X6602729Y-3251707D01*
X6613143Y-3262121D01*
X6623558Y-3267202D01*
X6668515Y-5118100D02*
G01*
X6559550Y-5118100D01*
X6668515Y-5118100D02*
G01*
X6668515Y-5164836D01*
X6663436Y-5180329D01*
X6658102Y-5185663D01*
X6647688Y-5190744D01*
X6632193Y-5190744D01*
X6621779Y-5185663D01*
X6616700Y-5180329D01*
X6611365Y-5164836D01*
X6611365Y-5118100D01*
X6668515Y-5225034D02*
G01*
X6559550Y-5225034D01*
X6668515Y-5225034D02*
G01*
X6668515Y-5271770D01*
X6663436Y-5287518D01*
X6658102Y-5292597D01*
X6647688Y-5297931D01*
X6632193Y-5297931D01*
X6621779Y-5292597D01*
X6616700Y-5287518D01*
X6611365Y-5271770D01*
X6611365Y-5225034D01*
X1549400Y-6820915D02*
G01*
X1549400Y-6711950D01*
X1549400Y-6820915D02*
G01*
X1502663Y-6820915D01*
X1487170Y-6815836D01*
X1481836Y-6810502D01*
X1476755Y-6800087D01*
X1476755Y-6789673D01*
X1481836Y-6779260D01*
X1487170Y-6774179D01*
X1502663Y-6769100D01*
X1549400Y-6769100D01*
X1513078Y-6769100D02*
G01*
X1476755Y-6711950D01*
X1442465Y-6820915D02*
G01*
X1442465Y-6711950D01*
X1442465Y-6820915D02*
G01*
X1374902Y-6820915D01*
X1442465Y-6769100D02*
G01*
X1400810Y-6769100D01*
X1340612Y-6800087D02*
G01*
X1330197Y-6805421D01*
X1314450Y-6820915D01*
X1314450Y-6711950D01*
X6668515Y-4051300D02*
G01*
X6590538Y-4051300D01*
X6575043Y-4056379D01*
X6564629Y-4066794D01*
X6559550Y-4082542D01*
X6559550Y-4092955D01*
X6564629Y-4108450D01*
X6575043Y-4118863D01*
X6590538Y-4123944D01*
X6668515Y-4123944D01*
X6668515Y-4199889D02*
G01*
X6559550Y-4158234D01*
X6668515Y-4199889D02*
G01*
X6559550Y-4241545D01*
X6595872Y-4173981D02*
G01*
X6595872Y-4225797D01*
X6668515Y-4275836D02*
G01*
X6559550Y-4275836D01*
X6668515Y-4275836D02*
G01*
X6668515Y-4322571D01*
X6663436Y-4338065D01*
X6658102Y-4343400D01*
X6647688Y-4348479D01*
X6637274Y-4348479D01*
X6626859Y-4343400D01*
X6621779Y-4338065D01*
X6616700Y-4322571D01*
X6616700Y-4275836D01*
X6616700Y-4312157D02*
G01*
X6559550Y-4348479D01*
X6668515Y-4419092D02*
G01*
X6559550Y-4419092D01*
X6668515Y-4382770D02*
G01*
X6668515Y-4455413D01*
D12*
X4054602Y-1697502D02*
G01*
X4054602Y-2578196D01*
X4054602Y-578200D02*
G01*
X4054602Y-1458894D01*
X6054597Y-578200D02*
G01*
X4054602Y-578200D01*
X6054597Y-1458894D02*
G01*
X6054597Y-578200D01*
X6054597Y-2578196D02*
G01*
X6054597Y-1697502D01*
X6054597Y-2578196D02*
G01*
X4054602Y-2578196D01*
X4940297Y-5359400D02*
G01*
X4940297Y-5613400D01*
X2908302Y-5613400D01*
X2908302Y-5359400D01*
X4940297Y-5359400D01*
X3164652Y-5359400D02*
G01*
X3164652Y-5613400D01*
X2362197Y-5092700D02*
G01*
X2362197Y-5346700D01*
X330202Y-5346700D01*
X330202Y-5092700D01*
X2362197Y-5092700D01*
X586552Y-5092700D02*
G01*
X586552Y-5346700D01*
X6553200Y-2806700D02*
G01*
X6553200Y-3314700D01*
X6299200Y-3314700D01*
X6299200Y-2806700D01*
X6553200Y-2806700D01*
D10*
X6527800Y-4953000D02*
G01*
X6527800Y-4762500D01*
X6273800Y-4762500D01*
X6273800Y-5524500D01*
X6527800Y-5524500D01*
D13*
X6527800Y-5524500D02*
G01*
X6527800Y-4953000D01*
D10*
X965200Y-6642100D02*
G01*
X965200Y-6388100D01*
X1981200Y-6388100D01*
X1981200Y-6642100D01*
X1790700Y-6642100D01*
D13*
X965200Y-6642100D02*
G01*
X1790700Y-6642100D01*
D12*
X6527800Y-3825052D02*
G01*
X6527800Y-4584700D01*
X6273800Y-4584700D01*
X6273800Y-3568700D01*
X6527800Y-3568700D01*
X6527800Y-3825052D01*
X6527800Y-3825052D02*
G01*
X6273800Y-3825052D01*
X296214Y-3784701D02*
G01*
X2396210Y-3784701D01*
X2396210Y-5384698D01*
X296214Y-5384698D01*
X296214Y-3784701D01*
X2819400Y-3683000D02*
G01*
X5019395Y-3683000D01*
X5019395Y-5682995D01*
X2819400Y-5682995D01*
X2819400Y-3683000D01*
M02*
