M48
METRIC,LZ,000.000
;FILE_FORMAT=3:3
;TYPE=PLATED
;Layer: PTH_Through
;EasyEDA v6.5.48, 2025-03-31 17:32:00
;4a954248cc764f1c991205ffb550d634,93aebdfcfbe24d40a812e2b2de22b7a1,10
;Gerber Generator version 0.2
;Holesize 1 = 0.306 mm
T01C0.306
;Holesize 2 = 0.800 mm
T02C0.800
;Holesize 3 = 0.914 mm
T03C0.914
;Holesize 4 = 0.915 mm
T04C0.915
;Holesize 5 = 1.000 mm
T05C1.000
;Holesize 6 = 1.021 mm
T06C1.021
;Holesize 7 = 1.101 mm
T07C1.101
;Holesize 8 = 1.200 mm
T08C1.200
;Holesize 9 = 1.301 mm
T09C1.301
;Holesize 10 = 2.000 mm
T10C2.000
%
G05
G90
T01
X035840Y016112
X029921Y002140
X033933Y-002177
T02
X020574Y057531
X020574Y054991
T03
X015875Y052324
X015875Y042164
X015748Y039370
X015748Y029210
T04
X037973Y006988G85X037973Y006982
X037973Y-006982G85X037973Y-006988
X009779Y053978G85X009779Y053972
X009779Y040008G85X009779Y040002
X052070Y-007115G85X052070Y-007109
X052070Y006855G85X052070Y006861
X045339Y-006988G85X045339Y-006982
X045339Y006982G85X045339Y006988
X032893Y006988G85X032893Y006982
X032893Y-006982G85X032893Y-006988
T05
X026670Y030099
X029210Y030099
X031750Y030099
X034290Y030099
X036830Y030099
X039370Y030099
X041910Y030099
X044450Y030099
X046990Y030099
X049530Y030099
X052070Y030099
X054610Y030099
X057150Y030099
X059690Y030099
X062230Y030099
X064770Y030099
X067310Y030099
X069850Y030099
X072390Y030099
X026670Y055499
X029210Y055499
X031750Y055499
X034290Y055499
X036830Y055499
X039370Y055499
X041910Y055499
X044450Y055499
X046990Y055499
X049530Y055499
X052070Y055499
X054610Y055499
X057150Y055499
X059690Y055499
X062230Y055499
X064770Y055499
X067310Y055499
X069850Y055499
X072390Y055499
X017399Y003810
X017399Y001270
T06
X022987Y-006604
X025527Y-006604
X028067Y-006604
X013970Y-006604
X016510Y-006604
X019050Y-006604
X028067Y005334
X028067Y002794
X028067Y000254
T07
X011938Y005842
X009398Y005842
X072898Y002159
X072898Y004699
X011811Y-000127
X009271Y-000127
X011938Y033909
X009398Y033909
X011938Y028702
X009398Y028702
X023368Y-001270
X023368Y001270
X023368Y003810
X023368Y006350
T08
X072393Y010414G85X072387Y010414
X072393Y024384G85X072387Y024384
X049533Y013589G85X049527Y013589
X049533Y021209G85X049527Y021209
X049533Y010414G85X049527Y010414
X049533Y024384G85X049527Y024384
T09
X058039Y002667
X058039Y-002413
X058039Y000127
X065913Y002540
X065913Y-002540
X065913Y000000
T10
X041907Y021463G85X041913Y021463
X041907Y013843G85X041913Y013843
X011427Y013843G85X011433Y013843
X011427Y021463G85X011433Y021463
M30
