G04 Layer: TopSolderMaskLayer*
G04 EasyEDA v6.5.48, 2025-03-31 17:32:00*
G04 4a954248cc764f1c991205ffb550d634,93aebdfcfbe24d40a812e2b2de22b7a1,10*
G04 Gerber Generator version 0.2*
G04 Scale: 100 percent, Rotated: No, Reflected: No *
G04 Dimensions in millimeters *
G04 leading zeros omitted , absolute positions ,4 integer and 5 decimal *
%FSLAX45Y45*%
%MOMM*%

%AMMACRO1*4,1,8,-0.8711,-0.9008,-0.9008,-0.871,-0.9008,0.8711,-0.8711,0.9008,0.871,0.9008,0.9008,0.8711,0.9008,-0.871,0.871,-0.9008,-0.8711,-0.9008,0*%
%AMMACRO2*4,1,8,-0.9211,-0.9508,-0.9508,-0.921,-0.9508,0.9211,-0.9211,0.9508,0.921,0.9508,0.9508,0.9211,0.9508,-0.921,0.921,-0.9508,-0.9211,-0.9508,0*%
%AMMACRO3*4,1,8,-1.271,-1.3007,-1.3007,-1.271,-1.3007,1.271,-1.271,1.3007,1.271,1.3007,1.3007,1.271,1.3007,-1.271,1.271,-1.3007,-1.271,-1.3007,0*%
%AMMACRO4*4,1,8,-1.5211,-1.5508,-1.5508,-1.521,-1.5508,1.5211,-1.5211,1.5508,1.521,1.5508,1.5508,1.5211,1.5508,-1.521,1.521,-1.5508,-1.5211,-1.5508,0*%
%AMMACRO5*4,1,8,-1.2707,-1.0516,-1.3005,-1.0218,-1.3005,1.0218,-1.2707,1.0516,1.2707,1.0516,1.3005,1.0218,1.3005,-1.0218,1.2707,-1.0516,-1.2707,-1.0516,0*%
%AMMACRO6*4,1,8,-0.8085,-0.8382,-0.8382,-0.8084,-0.8382,0.8085,-0.8085,0.8382,0.8084,0.8382,0.8382,0.8085,0.8382,-0.8084,0.8084,-0.8382,-0.8085,-0.8382,0*%
%ADD10MACRO1*%
%ADD11C,1.8016*%
%ADD12C,1.9016*%
%ADD13MACRO2*%
%ADD14MACRO3*%
%ADD15MACRO4*%
%ADD16C,1.6000*%
%ADD17MACRO5*%
%ADD18O,2.601595X2.101596*%
%ADD19C,1.6240*%
%ADD20C,1.6256*%
%ADD21C,1.6764*%
%ADD22MACRO6*%

%LPD*%
D10*
G01*
X2298701Y-660401D03*
D11*
G01*
X2552700Y-660400D03*
G01*
X2806700Y-660400D03*
D12*
G01*
X1193800Y584200D03*
D13*
G01*
X939800Y584200D03*
D12*
G01*
X7289800Y215900D03*
D13*
G01*
X7289800Y469900D03*
D12*
G01*
X1181100Y-12700D03*
D13*
G01*
X927100Y-12700D03*
D12*
G01*
X1193800Y3390900D03*
D13*
G01*
X939800Y3390900D03*
D12*
G01*
X1193800Y2870200D03*
D13*
G01*
X939800Y2870200D03*
D14*
G01*
X7239000Y1041400D03*
G01*
X7239000Y2438400D03*
G01*
X4953000Y1358900D03*
G01*
X4953000Y2120900D03*
G01*
X4953000Y1041400D03*
G01*
X4953000Y2438400D03*
D15*
G01*
X4191000Y2146300D03*
G01*
X4191000Y1384300D03*
G01*
X1143000Y1384300D03*
G01*
X1143000Y2146300D03*
D16*
G01*
X2667000Y3009900D03*
G01*
X2921000Y3009900D03*
G01*
X3175000Y3009900D03*
G01*
X3429000Y3009900D03*
G01*
X3683000Y3009900D03*
G01*
X3937000Y3009900D03*
G01*
X4191000Y3009900D03*
G01*
X4445000Y3009900D03*
G01*
X4699000Y3009900D03*
G01*
X4953000Y3009900D03*
G01*
X5207000Y3009900D03*
G01*
X5461000Y3009900D03*
G01*
X5715000Y3009900D03*
G01*
X5969000Y3009900D03*
G01*
X6223000Y3009900D03*
G01*
X6477000Y3009900D03*
G01*
X6731000Y3009900D03*
G01*
X6985000Y3009900D03*
G01*
X7239000Y3009900D03*
G01*
X2667000Y5549900D03*
G01*
X2921000Y5549900D03*
G01*
X3175000Y5549900D03*
G01*
X3429000Y5549900D03*
G01*
X3683000Y5549900D03*
G01*
X3937000Y5549900D03*
G01*
X4191000Y5549900D03*
G01*
X4445000Y5549900D03*
G01*
X4699000Y5549900D03*
G01*
X4953000Y5549900D03*
G01*
X5207000Y5549900D03*
G01*
X5461000Y5549900D03*
G01*
X5715000Y5549900D03*
G01*
X5969000Y5549900D03*
G01*
X6223000Y5549900D03*
G01*
X6477000Y5549900D03*
G01*
X6731000Y5549900D03*
G01*
X6985000Y5549900D03*
G01*
X7239000Y5549900D03*
D17*
G01*
X5803900Y266700D03*
D18*
G01*
X5803900Y-241300D03*
G01*
X5803900Y12700D03*
D17*
G01*
X6591300Y254000D03*
D18*
G01*
X6591300Y-254000D03*
G01*
X6591300Y0D03*
D19*
G01*
X2057400Y5753100D03*
G01*
X2057400Y5499100D03*
D20*
G01*
X3797300Y698500D03*
G01*
X3797300Y-698500D03*
G01*
X977900Y5397500D03*
G01*
X977900Y4000500D03*
G01*
X5207000Y-711200D03*
G01*
X5207000Y685800D03*
G01*
X4533900Y-698500D03*
G01*
X4533900Y698500D03*
G01*
X3289300Y698500D03*
G01*
X3289300Y-698500D03*
G01*
X1587500Y5232374D03*
G01*
X1587500Y4216374D03*
G01*
X1574800Y3936974D03*
G01*
X1574800Y2920974D03*
D10*
G01*
X1397001Y-660401D03*
D11*
G01*
X1651000Y-660400D03*
G01*
X1905000Y-660400D03*
D10*
G01*
X1739898Y380998D03*
D11*
G01*
X1739900Y127000D03*
D21*
G01*
X2806700Y533400D03*
G01*
X2806700Y279400D03*
D22*
G01*
X2806700Y25400D03*
D10*
G01*
X2336800Y-127000D03*
D11*
G01*
X2336800Y127000D03*
G01*
X2336800Y381000D03*
G01*
X2336800Y635000D03*
M02*
