G04 Layer: TopLayer*
G04 EasyEDA v6.5.48, 2025-03-31 17:32:00*
G04 4a954248cc764f1c991205ffb550d634,93aebdfcfbe24d40a812e2b2de22b7a1,10*
G04 Gerber Generator version 0.2*
G04 Scale: 100 percent, Rotated: No, Reflected: No *
G04 Dimensions in millimeters *
G04 leading zeros omitted , absolute positions ,4 integer and 5 decimal *
%FSLAX45Y45*%
%MOMM*%

%AMMACRO1*21,1,$1,$2,0,0,$3*%
%ADD10C,0.2540*%
%ADD11R,1.7000X1.7000*%
%ADD12C,1.7000*%
%ADD13C,1.8000*%
%ADD14R,1.8000X1.8000*%
%ADD15R,2.4999X2.4999*%
%ADD16R,3.0000X3.0000*%
%ADD17C,1.5000*%
%ADD18MACRO1,2.0015X2.4994X-90.0000*%
%ADD19O,2.4999949999999997X1.9999959999999999*%
%ADD20C,1.5240*%
%ADD21C,1.5748*%
%ADD22R,1.5748X1.5748*%
%ADD23C,0.6100*%

%LPD*%
D10*
X2992071Y213360D02*
G01*
X2945183Y167639D01*
X2575206Y167639D01*
X2499565Y243839D01*
X1241478Y243839D01*
X1054100Y38100D01*
X1016000Y-12700D01*
X918946Y-12700D02*
G01*
X1016000Y-12700D01*
X5803902Y12700D02*
G01*
X3825699Y12700D01*
X1074879Y2763520D01*
X1074879Y3271977D01*
X1193802Y3390900D01*
X1193802Y2870200D02*
G01*
X2511402Y1552600D01*
X3608326Y1552600D01*
X3625623Y1569897D01*
X5542892Y1569897D01*
X6757012Y355777D01*
X6757012Y148767D01*
X6608244Y0D01*
X6591302Y0D01*
X3393315Y-217678D02*
G01*
X2733169Y-217678D01*
X2528191Y-12700D01*
X1181102Y-12700D01*
X977902Y5397500D02*
G01*
X1079502Y5499100D01*
X2057402Y5499100D01*
X4533902Y-698500D02*
G01*
X4738423Y-493979D01*
X5843323Y-493979D01*
X6591302Y254000D01*
X4533902Y-698500D02*
G01*
X4416351Y-580948D01*
X3406853Y-580948D01*
X3289302Y-698500D01*
X3797300Y-698500D02*
G01*
X3914421Y-815621D01*
X5102585Y-815621D01*
X5207000Y-711200D01*
X4533902Y698500D02*
G01*
X5194302Y698500D01*
X5207002Y685800D01*
X2057402Y5753100D02*
G01*
X6019802Y5753100D01*
X6223002Y5549900D01*
X1651002Y-660400D02*
G01*
X1764083Y-547319D01*
X2439621Y-547319D01*
X2552702Y-660400D01*
X7239002Y3009900D02*
G01*
X4846322Y5402579D01*
X3175866Y5402579D01*
X3048002Y5530443D01*
X3048002Y5591733D01*
X2982165Y5657570D01*
X2505407Y5657570D01*
X2080211Y5232374D01*
X1587502Y5232374D01*
X2667002Y3009900D02*
G01*
X3583967Y2092934D01*
X3583967Y1611172D01*
X1905002Y-660400D02*
G01*
X2027532Y-782929D01*
X2684172Y-782929D01*
X2806702Y-660400D01*
X3289300Y698500D02*
G01*
X3797300Y698500D01*
X2667002Y5549900D02*
G01*
X1117602Y4000500D01*
X977902Y4000500D01*
X1143002Y1384300D02*
G01*
X1955802Y1384300D01*
X2806702Y533400D01*
X4368929Y1384300D02*
G01*
X4711829Y1041400D01*
X4953002Y1041400D01*
X4191002Y1384300D02*
G01*
X4368929Y1384300D01*
X4953002Y2438400D02*
G01*
X5203395Y2438400D01*
X7171895Y469900D01*
X7289802Y469900D02*
G01*
X7171895Y469900D01*
X4368929Y2146300D02*
G01*
X4786886Y1728343D01*
X5777359Y1728343D01*
X7289802Y215900D01*
X4191002Y2146300D02*
G01*
X4368929Y2146300D01*
X5803902Y-241300D02*
G01*
X3530196Y-241300D01*
X2896897Y391998D01*
X2652778Y391998D01*
X2536776Y508000D01*
X1270002Y508000D01*
X1193802Y584200D01*
D11*
G01*
X2298700Y-660400D03*
D12*
G01*
X2552700Y-660400D03*
G01*
X2806700Y-660400D03*
D13*
G01*
X1193800Y584200D03*
D14*
G01*
X939800Y584200D03*
D13*
G01*
X7289800Y215900D03*
D14*
G01*
X7289800Y469900D03*
D13*
G01*
X1181100Y-12700D03*
D14*
G01*
X927100Y-12700D03*
D13*
G01*
X1193800Y3390900D03*
D14*
G01*
X939800Y3390900D03*
D13*
G01*
X1193800Y2870200D03*
D14*
G01*
X939800Y2870200D03*
D15*
G01*
X7239000Y1041400D03*
G01*
X7239000Y2438400D03*
G01*
X4953000Y1358900D03*
G01*
X4953000Y2120900D03*
G01*
X4953000Y1041400D03*
G01*
X4953000Y2438400D03*
D16*
G01*
X4191000Y2146300D03*
G01*
X4191000Y1384300D03*
G01*
X1143000Y1384300D03*
G01*
X1143000Y2146300D03*
D17*
G01*
X2667000Y3009900D03*
G01*
X2921000Y3009900D03*
G01*
X3175000Y3009900D03*
G01*
X3429000Y3009900D03*
G01*
X3683000Y3009900D03*
G01*
X3937000Y3009900D03*
G01*
X4191000Y3009900D03*
G01*
X4445000Y3009900D03*
G01*
X4699000Y3009900D03*
G01*
X4953000Y3009900D03*
G01*
X5207000Y3009900D03*
G01*
X5461000Y3009900D03*
G01*
X5715000Y3009900D03*
G01*
X5969000Y3009900D03*
G01*
X6223000Y3009900D03*
G01*
X6477000Y3009900D03*
G01*
X6731000Y3009900D03*
G01*
X6985000Y3009900D03*
G01*
X7239000Y3009900D03*
G01*
X2667000Y5549900D03*
G01*
X2921000Y5549900D03*
G01*
X3175000Y5549900D03*
G01*
X3429000Y5549900D03*
G01*
X3683000Y5549900D03*
G01*
X3937000Y5549900D03*
G01*
X4191000Y5549900D03*
G01*
X4445000Y5549900D03*
G01*
X4699000Y5549900D03*
G01*
X4953000Y5549900D03*
G01*
X5207000Y5549900D03*
G01*
X5461000Y5549900D03*
G01*
X5715000Y5549900D03*
G01*
X5969000Y5549900D03*
G01*
X6223000Y5549900D03*
G01*
X6477000Y5549900D03*
G01*
X6731000Y5549900D03*
G01*
X6985000Y5549900D03*
G01*
X7239000Y5549900D03*
D18*
G01*
X5803900Y266700D03*
D19*
G01*
X5803900Y-241300D03*
G01*
X5803900Y12700D03*
D18*
G01*
X6591300Y254000D03*
D19*
G01*
X6591300Y-254000D03*
G01*
X6591300Y0D03*
D20*
G01*
X2057400Y5753100D03*
G01*
X2057400Y5499100D03*
G01*
X3797300Y698500D03*
G01*
X3797300Y-698500D03*
G01*
X977900Y5397500D03*
G01*
X977900Y4000500D03*
G01*
X5207000Y-711200D03*
G01*
X5207000Y685800D03*
G01*
X4533900Y-698500D03*
G01*
X4533900Y698500D03*
G01*
X3289300Y698500D03*
G01*
X3289300Y-698500D03*
G01*
X1587500Y5232374D03*
G01*
X1587500Y4216374D03*
G01*
X1574800Y3936974D03*
G01*
X1574800Y2920974D03*
D11*
G01*
X1397000Y-660400D03*
D12*
G01*
X1651000Y-660400D03*
G01*
X1905000Y-660400D03*
D11*
G01*
X1739900Y381000D03*
D12*
G01*
X1739900Y127000D03*
D21*
G01*
X2806700Y533400D03*
G01*
X2806700Y279400D03*
D22*
G01*
X2806700Y25400D03*
D11*
G01*
X2336800Y-127000D03*
D12*
G01*
X2336800Y127000D03*
G01*
X2336800Y381000D03*
G01*
X2336800Y635000D03*
D23*
G01*
X3583967Y1611172D03*
G01*
X2992071Y213969D03*
G01*
X3393315Y-217678D03*
M02*
