G04 Layer: BottomLayer*
G04 EasyEDA v6.5.48, 2025-03-31 17:32:00*
G04 4a954248cc764f1c991205ffb550d634,93aebdfcfbe24d40a812e2b2de22b7a1,10*
G04 Gerber Generator version 0.2*
G04 Scale: 100 percent, Rotated: No, Reflected: No *
G04 Dimensions in millimeters *
G04 leading zeros omitted , absolute positions ,4 integer and 5 decimal *
%FSLAX45Y45*%
%MOMM*%

%AMMACRO1*21,1,$1,$2,0,0,$3*%
%ADD10C,0.2540*%
%ADD11R,1.7000X1.7000*%
%ADD12C,1.7000*%
%ADD13C,1.8000*%
%ADD14R,1.8000X1.8000*%
%ADD15R,2.4999X2.4999*%
%ADD16R,3.0000X3.0000*%
%ADD17C,1.5000*%
%ADD18MACRO1,2.0015X2.4994X-90.0000*%
%ADD19O,2.4999949999999997X1.9999959999999999*%
%ADD20C,1.5240*%
%ADD21C,1.5748*%
%ADD22R,1.5748X1.5748*%
%ADD23C,0.6100*%

%LPD*%
D10*
X4191000Y1384300D02*
G01*
X4191000Y1092200D01*
X3797300Y889000D01*
X3797300Y698500D01*
X4445000Y3009900D02*
G01*
X4445000Y2656839D01*
X4815840Y2286000D01*
X5118100Y2273300D01*
X5181600Y2171700D01*
X5181600Y1922779D01*
X3035300Y-223520D01*
X3035300Y-596900D01*
X2848609Y-782320D01*
X2505963Y-782320D01*
X2411729Y-688339D01*
X2387600Y-660400D01*
X2806700Y101600D02*
G01*
X2780032Y132079D01*
X2699870Y213360D01*
X2699870Y726439D01*
X3583967Y1610360D01*
X2806700Y12700D02*
G01*
X2806697Y101600D01*
X4953000Y1358900D02*
G01*
X4816985Y1206500D01*
X3393315Y-218439D01*
X2298700Y-660400D02*
G01*
X2387600Y-660400D01*
X1485900Y-660400D02*
G01*
X1509930Y-688339D01*
X1598094Y-777239D01*
X1957605Y-777239D01*
X2610233Y-124460D01*
X2610233Y721360D01*
X3870581Y1981200D01*
X3870581Y2689860D01*
X4191002Y3009900D01*
X1397002Y-660400D02*
G01*
X1485900Y-660400D01*
X977900Y4000500D02*
G01*
X1057910Y3921760D01*
X1057910Y2560320D01*
X952500Y2454910D01*
X952500Y1422400D01*
X990600Y1384300D01*
X1143000Y1384300D01*
X1574802Y3936974D02*
G01*
X1587502Y3949674D01*
X1587502Y4216374D01*
X5461002Y5549900D02*
G01*
X3809977Y3898874D01*
X3809977Y2108174D01*
X2336802Y635000D01*
X2336802Y381000D02*
G01*
X2210869Y506933D01*
X2210869Y1695170D01*
X3302002Y2786303D01*
X3302002Y3644900D01*
X5207002Y5549900D01*
X1739902Y381000D02*
G01*
X1739902Y4172483D01*
X3048027Y5480608D01*
X3048027Y5588355D01*
X3124837Y5665165D01*
X3821737Y5665165D01*
X3937002Y5549900D01*
X2336802Y127000D02*
G01*
X2167003Y296798D01*
X2167003Y4033901D01*
X3683002Y5549900D01*
X2223899Y-127000D02*
G01*
X2113307Y-16408D01*
X2113307Y4234205D01*
X3429002Y5549900D01*
X2336802Y-127000D02*
G01*
X2223899Y-127000D01*
X1739902Y127000D02*
G01*
X1939343Y326440D01*
X1939343Y4314240D01*
X3175002Y5549900D01*
X1574802Y2920974D02*
G01*
X1143002Y2489174D01*
X1143002Y2146300D01*
X939802Y584200D02*
G01*
X939802Y702106D01*
X939802Y2870200D02*
G01*
X939802Y3390900D01*
X939802Y2752293D02*
G01*
X910313Y2722803D01*
X910313Y731596D01*
X939802Y702106D01*
X939802Y2870200D02*
G01*
X939802Y2752293D01*
X4953002Y2120900D02*
G01*
X4578377Y2120900D01*
X3412848Y955370D01*
X3412848Y634745D01*
X2992071Y213969D01*
X5207002Y-711200D02*
G01*
X5207002Y-330200D01*
X5803902Y266700D01*
X5207002Y685800D02*
G01*
X5842002Y1320800D01*
X5842002Y4914900D01*
X6477002Y5549900D01*
X1587502Y5232374D02*
G01*
X1699110Y5120767D01*
X1699110Y922502D01*
X1625932Y849325D01*
X1625932Y-635330D01*
X1651002Y-660400D01*
X2806702Y279400D02*
G01*
X2806702Y258851D01*
X2913534Y152019D01*
X2913534Y-299567D01*
X2552702Y-660400D01*
X2933499Y533400D02*
G01*
X2933499Y189712D01*
X2959610Y163601D01*
X2959610Y-507492D01*
X2806702Y-660400D01*
X2806702Y533400D02*
G01*
X2933499Y533400D01*
X2933499Y533400D02*
G01*
X3124202Y533400D01*
X3289302Y698500D01*
X6591302Y-254000D02*
G01*
X5816602Y-254000D01*
X5803902Y-241300D01*
D11*
G01*
X2298700Y-660400D03*
D12*
G01*
X2552700Y-660400D03*
G01*
X2806700Y-660400D03*
D13*
G01*
X1193800Y584200D03*
D14*
G01*
X939800Y584200D03*
D13*
G01*
X7289800Y215900D03*
D14*
G01*
X7289800Y469900D03*
D13*
G01*
X1181100Y-12700D03*
D14*
G01*
X927100Y-12700D03*
D13*
G01*
X1193800Y3390900D03*
D14*
G01*
X939800Y3390900D03*
D13*
G01*
X1193800Y2870200D03*
D14*
G01*
X939800Y2870200D03*
D15*
G01*
X7239000Y1041400D03*
G01*
X7239000Y2438400D03*
G01*
X4953000Y1358900D03*
G01*
X4953000Y2120900D03*
G01*
X4953000Y1041400D03*
G01*
X4953000Y2438400D03*
D16*
G01*
X4191000Y2146300D03*
G01*
X4191000Y1384300D03*
G01*
X1143000Y1384300D03*
G01*
X1143000Y2146300D03*
D17*
G01*
X2667000Y3009900D03*
G01*
X2921000Y3009900D03*
G01*
X3175000Y3009900D03*
G01*
X3429000Y3009900D03*
G01*
X3683000Y3009900D03*
G01*
X3937000Y3009900D03*
G01*
X4191000Y3009900D03*
G01*
X4445000Y3009900D03*
G01*
X4699000Y3009900D03*
G01*
X4953000Y3009900D03*
G01*
X5207000Y3009900D03*
G01*
X5461000Y3009900D03*
G01*
X5715000Y3009900D03*
G01*
X5969000Y3009900D03*
G01*
X6223000Y3009900D03*
G01*
X6477000Y3009900D03*
G01*
X6731000Y3009900D03*
G01*
X6985000Y3009900D03*
G01*
X7239000Y3009900D03*
G01*
X2667000Y5549900D03*
G01*
X2921000Y5549900D03*
G01*
X3175000Y5549900D03*
G01*
X3429000Y5549900D03*
G01*
X3683000Y5549900D03*
G01*
X3937000Y5549900D03*
G01*
X4191000Y5549900D03*
G01*
X4445000Y5549900D03*
G01*
X4699000Y5549900D03*
G01*
X4953000Y5549900D03*
G01*
X5207000Y5549900D03*
G01*
X5461000Y5549900D03*
G01*
X5715000Y5549900D03*
G01*
X5969000Y5549900D03*
G01*
X6223000Y5549900D03*
G01*
X6477000Y5549900D03*
G01*
X6731000Y5549900D03*
G01*
X6985000Y5549900D03*
G01*
X7239000Y5549900D03*
D18*
G01*
X5803900Y266700D03*
D19*
G01*
X5803900Y-241300D03*
G01*
X5803900Y12700D03*
D18*
G01*
X6591300Y254000D03*
D19*
G01*
X6591300Y-254000D03*
G01*
X6591300Y0D03*
D20*
G01*
X2057400Y5753100D03*
G01*
X2057400Y5499100D03*
G01*
X3797300Y698500D03*
G01*
X3797300Y-698500D03*
G01*
X977900Y5397500D03*
G01*
X977900Y4000500D03*
G01*
X5207000Y-711200D03*
G01*
X5207000Y685800D03*
G01*
X4533900Y-698500D03*
G01*
X4533900Y698500D03*
G01*
X3289300Y698500D03*
G01*
X3289300Y-698500D03*
G01*
X1587500Y5232374D03*
G01*
X1587500Y4216374D03*
G01*
X1574800Y3936974D03*
G01*
X1574800Y2920974D03*
D11*
G01*
X1397000Y-660400D03*
D12*
G01*
X1651000Y-660400D03*
G01*
X1905000Y-660400D03*
D11*
G01*
X1739900Y381000D03*
D12*
G01*
X1739900Y127000D03*
D21*
G01*
X2806700Y533400D03*
G01*
X2806700Y279400D03*
D22*
G01*
X2806700Y25400D03*
D11*
G01*
X2336800Y-127000D03*
D12*
G01*
X2336800Y127000D03*
G01*
X2336800Y381000D03*
G01*
X2336800Y635000D03*
D23*
G01*
X3583967Y1611172D03*
G01*
X2992071Y213969D03*
G01*
X3393315Y-217678D03*
M02*
