G04 Layer: TopSilkscreenLayer*
G04 EasyEDA v6.5.48, 2025-03-31 17:32:00*
G04 4a954248cc764f1c991205ffb550d634,93aebdfcfbe24d40a812e2b2de22b7a1,10*
G04 Gerber Generator version 0.2*
G04 Scale: 100 percent, Rotated: No, Reflected: No *
G04 Dimensions in millimeters *
G04 leading zeros omitted , absolute positions ,4 integer and 5 decimal *
%FSLAX45Y45*%
%MOMM*%

%ADD10C,0.1524*%
%ADD11C,0.1016*%
%ADD12C,0.1422*%
%ADD13C,0.2540*%
%ADD14C,0.1270*%
%ADD15C,0.4000*%
%ADD16C,0.0171*%

%LPD*%
G36*
X3605022Y4788662D02*
G01*
X3597910Y4788458D01*
X3591153Y4787849D01*
X3584651Y4786884D01*
X3578504Y4785563D01*
X3572662Y4783836D01*
X3567125Y4781804D01*
X3561943Y4779416D01*
X3557066Y4776724D01*
X3552596Y4773726D01*
X3548430Y4770475D01*
X3544671Y4766919D01*
X3541268Y4763109D01*
X3538220Y4759045D01*
X3535578Y4754727D01*
X3533292Y4750206D01*
X3531412Y4745431D01*
X3529990Y4740503D01*
X3528923Y4735372D01*
X3528263Y4730089D01*
X3528060Y4724654D01*
X3528415Y4717643D01*
X3529482Y4711039D01*
X3531209Y4704842D01*
X3533597Y4699050D01*
X3536594Y4693615D01*
X3540251Y4688484D01*
X3544519Y4683709D01*
X3549396Y4679188D01*
X3559810Y4688586D01*
X3555949Y4692345D01*
X3552545Y4696256D01*
X3549650Y4700270D01*
X3547211Y4704537D01*
X3545281Y4708956D01*
X3543909Y4713681D01*
X3543096Y4718608D01*
X3542792Y4723892D01*
X3543096Y4729226D01*
X3543909Y4734306D01*
X3545281Y4739132D01*
X3547160Y4743653D01*
X3549548Y4747869D01*
X3552444Y4751781D01*
X3555796Y4755337D01*
X3559657Y4758588D01*
X3563924Y4761484D01*
X3568649Y4764074D01*
X3573779Y4766259D01*
X3579317Y4768088D01*
X3585260Y4769510D01*
X3591560Y4770526D01*
X3598265Y4771186D01*
X3605276Y4771390D01*
X3612286Y4771186D01*
X3618941Y4770526D01*
X3625240Y4769459D01*
X3631133Y4767935D01*
X3636670Y4766056D01*
X3641750Y4763820D01*
X3646424Y4761179D01*
X3650640Y4758232D01*
X3654450Y4754880D01*
X3657752Y4751222D01*
X3660597Y4747260D01*
X3662984Y4742992D01*
X3664813Y4738420D01*
X3666185Y4733594D01*
X3666998Y4728464D01*
X3667251Y4723130D01*
X3666185Y4713935D01*
X3663289Y4705756D01*
X3658768Y4698593D01*
X3653028Y4692396D01*
X3663950Y4682998D01*
X3667404Y4686401D01*
X3670757Y4690313D01*
X3673805Y4694682D01*
X3676497Y4699558D01*
X3678732Y4704892D01*
X3680510Y4710633D01*
X3681577Y4716830D01*
X3681984Y4723384D01*
X3681780Y4728921D01*
X3681120Y4734356D01*
X3680053Y4739589D01*
X3678580Y4744618D01*
X3676650Y4749444D01*
X3674364Y4754067D01*
X3671722Y4758436D01*
X3668623Y4762601D01*
X3665220Y4766513D01*
X3661410Y4770120D01*
X3657244Y4773472D01*
X3652723Y4776520D01*
X3647897Y4779264D01*
X3642715Y4781651D01*
X3637178Y4783734D01*
X3631387Y4785461D01*
X3625240Y4786833D01*
X3618788Y4787849D01*
X3612032Y4788458D01*
G37*
G36*
X3530600Y4652518D02*
G01*
X3530600Y4636008D01*
X3610864Y4636008D01*
X3618585Y4627930D01*
X3621633Y4624120D01*
X3624122Y4620412D01*
X3626104Y4616653D01*
X3627526Y4612843D01*
X3628339Y4608931D01*
X3628644Y4604766D01*
X3628186Y4599432D01*
X3626865Y4594910D01*
X3624630Y4591151D01*
X3621379Y4588154D01*
X3617163Y4585817D01*
X3611930Y4584192D01*
X3605580Y4583226D01*
X3598164Y4582922D01*
X3530600Y4582922D01*
X3530600Y4566412D01*
X3600196Y4566412D01*
X3606952Y4566615D01*
X3613150Y4567275D01*
X3618788Y4568393D01*
X3623868Y4569968D01*
X3628339Y4572000D01*
X3632250Y4574489D01*
X3635552Y4577486D01*
X3638245Y4580991D01*
X3640378Y4584954D01*
X3641902Y4589424D01*
X3642817Y4594402D01*
X3643122Y4599940D01*
X3642766Y4605375D01*
X3641648Y4610506D01*
X3639921Y4615332D01*
X3637686Y4619955D01*
X3634892Y4624324D01*
X3631742Y4628540D01*
X3624579Y4636516D01*
X3647440Y4636008D01*
X3692398Y4636008D01*
X3692398Y4652518D01*
G37*
G36*
X3675379Y4533392D02*
G01*
X3670604Y4532579D01*
X3666998Y4530242D01*
X3664712Y4526534D01*
X3663950Y4521708D01*
X3664712Y4517288D01*
X3666998Y4513732D01*
X3670604Y4511395D01*
X3675379Y4510532D01*
X3680002Y4511395D01*
X3683558Y4513732D01*
X3685794Y4517288D01*
X3686556Y4521708D01*
X3685794Y4526534D01*
X3683558Y4530242D01*
X3680002Y4532579D01*
G37*
G36*
X3530600Y4530090D02*
G01*
X3530600Y4513580D01*
X3640328Y4513580D01*
X3640328Y4530090D01*
G37*
G36*
X3530600Y4475480D02*
G01*
X3530600Y4458970D01*
X3610864Y4458970D01*
X3618687Y4451299D01*
X3624224Y4443933D01*
X3627526Y4436922D01*
X3628644Y4430268D01*
X3628186Y4425137D01*
X3626865Y4420717D01*
X3624630Y4417060D01*
X3621379Y4414062D01*
X3617163Y4411776D01*
X3611930Y4410202D01*
X3605580Y4409236D01*
X3598164Y4408932D01*
X3530600Y4408932D01*
X3530600Y4392422D01*
X3610864Y4392422D01*
X3618687Y4384649D01*
X3624224Y4377283D01*
X3627526Y4370222D01*
X3628644Y4363466D01*
X3628186Y4358386D01*
X3626865Y4354017D01*
X3624630Y4350359D01*
X3621379Y4347362D01*
X3617163Y4345076D01*
X3611930Y4343450D01*
X3605580Y4342434D01*
X3598164Y4342130D01*
X3530600Y4342130D01*
X3530600Y4325620D01*
X3600196Y4325620D01*
X3606952Y4325823D01*
X3613150Y4326534D01*
X3618788Y4327652D01*
X3623868Y4329277D01*
X3628339Y4331360D01*
X3632250Y4333900D01*
X3635552Y4336846D01*
X3638245Y4340352D01*
X3640378Y4344263D01*
X3641902Y4348683D01*
X3642817Y4353560D01*
X3643122Y4358894D01*
X3642715Y4363770D01*
X3641598Y4368495D01*
X3639718Y4373118D01*
X3637229Y4377639D01*
X3634130Y4382109D01*
X3630472Y4386580D01*
X3626358Y4390999D01*
X3621786Y4395470D01*
X3626408Y4397298D01*
X3630574Y4399635D01*
X3634232Y4402429D01*
X3637330Y4405833D01*
X3639769Y4409795D01*
X3641598Y4414418D01*
X3642715Y4419701D01*
X3643122Y4425696D01*
X3642766Y4430420D01*
X3641648Y4435043D01*
X3639921Y4439564D01*
X3637584Y4443933D01*
X3634790Y4448200D01*
X3631539Y4452213D01*
X3627932Y4456074D01*
X3624072Y4459732D01*
X3624072Y4460494D01*
X3640328Y4462018D01*
X3640328Y4475480D01*
G37*
G36*
X3675379Y4292092D02*
G01*
X3670604Y4291228D01*
X3666998Y4288840D01*
X3664712Y4285132D01*
X3663950Y4280408D01*
X3664712Y4275836D01*
X3666998Y4272229D01*
X3670604Y4269841D01*
X3675379Y4268978D01*
X3680002Y4269841D01*
X3683558Y4272229D01*
X3685794Y4275836D01*
X3686556Y4280408D01*
X3685794Y4285132D01*
X3683558Y4288840D01*
X3680002Y4291228D01*
G37*
G36*
X3530600Y4288790D02*
G01*
X3530600Y4272280D01*
X3640328Y4272280D01*
X3640328Y4288790D01*
G37*
G36*
X3585464Y4242562D02*
G01*
X3578809Y4242308D01*
X3572560Y4241546D01*
X3566668Y4240326D01*
X3561181Y4238650D01*
X3556050Y4236567D01*
X3551326Y4234027D01*
X3547008Y4231132D01*
X3543147Y4227880D01*
X3539693Y4224274D01*
X3536645Y4220362D01*
X3534054Y4216196D01*
X3531920Y4211675D01*
X3530244Y4206951D01*
X3529025Y4202023D01*
X3528314Y4196842D01*
X3528060Y4191508D01*
X3528314Y4186580D01*
X3528974Y4181805D01*
X3530142Y4177131D01*
X3531717Y4172610D01*
X3533698Y4168241D01*
X3536086Y4164025D01*
X3538880Y4160012D01*
X3542029Y4156201D01*
X3552951Y4163568D01*
X3548634Y4169156D01*
X3545078Y4175556D01*
X3542639Y4182618D01*
X3541776Y4190237D01*
X3542131Y4195368D01*
X3543198Y4200194D01*
X3544925Y4204665D01*
X3547313Y4208780D01*
X3550259Y4212488D01*
X3553815Y4215790D01*
X3557879Y4218686D01*
X3562502Y4221073D01*
X3567582Y4223004D01*
X3573119Y4224375D01*
X3579114Y4225239D01*
X3585464Y4225544D01*
X3591763Y4225239D01*
X3597706Y4224324D01*
X3603244Y4222851D01*
X3608324Y4220819D01*
X3612896Y4218330D01*
X3617010Y4215333D01*
X3620566Y4211929D01*
X3623564Y4208170D01*
X3625951Y4204004D01*
X3627729Y4199534D01*
X3628796Y4194759D01*
X3629151Y4189729D01*
X3628440Y4183227D01*
X3626408Y4177385D01*
X3623259Y4172051D01*
X3619246Y4167124D01*
X3629914Y4158234D01*
X3634994Y4164584D01*
X3639159Y4171899D01*
X3642055Y4180433D01*
X3643122Y4190492D01*
X3642868Y4195622D01*
X3642156Y4200702D01*
X3640937Y4205579D01*
X3639261Y4210304D01*
X3637127Y4214825D01*
X3634536Y4219143D01*
X3631488Y4223156D01*
X3628034Y4226915D01*
X3624122Y4230319D01*
X3619804Y4233367D01*
X3615029Y4236059D01*
X3609898Y4238294D01*
X3604361Y4240123D01*
X3598418Y4241444D01*
X3592118Y4242257D01*
G37*
G36*
X3530600Y4131310D02*
G01*
X3530600Y4114800D01*
X3610864Y4114800D01*
X3618585Y4106722D01*
X3621633Y4102912D01*
X3624122Y4099204D01*
X3626104Y4095445D01*
X3627526Y4091635D01*
X3628339Y4087723D01*
X3628644Y4083558D01*
X3628186Y4078224D01*
X3626865Y4073702D01*
X3624630Y4069943D01*
X3621379Y4066946D01*
X3617163Y4064609D01*
X3611930Y4062984D01*
X3605580Y4062018D01*
X3598164Y4061714D01*
X3530600Y4061714D01*
X3530600Y4045204D01*
X3600196Y4045204D01*
X3606952Y4045407D01*
X3613150Y4046067D01*
X3618788Y4047185D01*
X3623868Y4048760D01*
X3628339Y4050792D01*
X3632250Y4053281D01*
X3635552Y4056278D01*
X3638245Y4059783D01*
X3640378Y4063746D01*
X3641902Y4068216D01*
X3642817Y4073194D01*
X3643122Y4078732D01*
X3642766Y4084167D01*
X3641648Y4089298D01*
X3639921Y4094124D01*
X3637686Y4098747D01*
X3634892Y4103115D01*
X3631742Y4107281D01*
X3628288Y4111345D01*
X3624579Y4115308D01*
X3647440Y4114800D01*
X3692398Y4114800D01*
X3692398Y4131310D01*
G37*
G36*
X3558794Y4015994D02*
G01*
X3551783Y4015384D01*
X3545636Y4013555D01*
X3540353Y4010710D01*
X3535984Y4006900D01*
X3532581Y4002227D01*
X3530092Y3996791D01*
X3528568Y3990797D01*
X3528060Y3984244D01*
X3528328Y3979672D01*
X3541268Y3979672D01*
X3542284Y3987546D01*
X3545586Y3994048D01*
X3551326Y3998366D01*
X3559810Y3999992D01*
X3563416Y3999687D01*
X3566820Y3998823D01*
X3570020Y3997299D01*
X3572967Y3995115D01*
X3575710Y3992219D01*
X3578199Y3988511D01*
X3580485Y3984040D01*
X3582568Y3978706D01*
X3584397Y3972458D01*
X3586073Y3965295D01*
X3587546Y3957116D01*
X3588765Y3947922D01*
X3556508Y3947922D01*
X3549954Y3956050D01*
X3545179Y3963822D01*
X3542233Y3971544D01*
X3541268Y3979672D01*
X3528328Y3979672D01*
X3529329Y3974033D01*
X3530803Y3969207D01*
X3532733Y3964482D01*
X3535070Y3959910D01*
X3537813Y3955491D01*
X3540810Y3951224D01*
X3544062Y3947160D01*
X3544062Y3946651D01*
X3530600Y3945128D01*
X3530600Y3931412D01*
X3598672Y3931412D01*
X3605072Y3931615D01*
X3611118Y3932326D01*
X3616756Y3933494D01*
X3621938Y3935171D01*
X3626612Y3937355D01*
X3630777Y3940098D01*
X3634435Y3943350D01*
X3637483Y3947210D01*
X3639870Y3951681D01*
X3641648Y3956710D01*
X3642766Y3962400D01*
X3643122Y3968750D01*
X3642766Y3975201D01*
X3641750Y3981450D01*
X3640226Y3987393D01*
X3638245Y3993032D01*
X3636010Y3998315D01*
X3631082Y4007561D01*
X3628644Y4011422D01*
X3617214Y4004564D01*
X3621582Y3997807D01*
X3625494Y3989832D01*
X3628339Y3980942D01*
X3629406Y3971290D01*
X3628745Y3964889D01*
X3626865Y3959656D01*
X3623970Y3955592D01*
X3620211Y3952443D01*
X3615740Y3950258D01*
X3610762Y3948836D01*
X3605428Y3948074D01*
X3599942Y3947922D01*
X3597656Y3964432D01*
X3596233Y3971747D01*
X3594658Y3978503D01*
X3592880Y3984650D01*
X3590950Y3990238D01*
X3588765Y3995216D01*
X3586429Y3999687D01*
X3583838Y4003548D01*
X3580993Y4006900D01*
X3577945Y4009745D01*
X3574643Y4011980D01*
X3571087Y4013758D01*
X3567277Y4015028D01*
X3563162Y4015740D01*
G37*
G36*
X3530600Y3895344D02*
G01*
X3530600Y3878834D01*
X3610864Y3878834D01*
X3618585Y3870756D01*
X3621633Y3866997D01*
X3624122Y3863289D01*
X3626104Y3859580D01*
X3627526Y3855770D01*
X3628339Y3851808D01*
X3628644Y3847592D01*
X3628186Y3842258D01*
X3626865Y3837736D01*
X3624630Y3833977D01*
X3621379Y3830929D01*
X3617163Y3828643D01*
X3611930Y3827018D01*
X3605580Y3826052D01*
X3598164Y3825748D01*
X3530600Y3825748D01*
X3530600Y3809237D01*
X3600196Y3809237D01*
X3606952Y3809441D01*
X3613150Y3810101D01*
X3618788Y3811219D01*
X3623868Y3812794D01*
X3628339Y3814826D01*
X3632250Y3817315D01*
X3635552Y3820312D01*
X3638245Y3823817D01*
X3640378Y3827779D01*
X3641902Y3832250D01*
X3642817Y3837228D01*
X3643122Y3842765D01*
X3642766Y3848201D01*
X3641648Y3853383D01*
X3639921Y3858260D01*
X3637635Y3862882D01*
X3634841Y3867302D01*
X3631641Y3871569D01*
X3628136Y3875633D01*
X3624326Y3879596D01*
X3624326Y3880358D01*
X3640328Y3881882D01*
X3640328Y3895344D01*
G37*
G36*
X3509264Y3781044D02*
G01*
X3504742Y3780688D01*
X3500526Y3779570D01*
X3496665Y3777742D01*
X3493211Y3775303D01*
X3490112Y3772204D01*
X3487369Y3768547D01*
X3485032Y3764279D01*
X3483051Y3759504D01*
X3481527Y3754272D01*
X3480460Y3748532D01*
X3479749Y3742385D01*
X3479546Y3735832D01*
X3479646Y3733546D01*
X3491229Y3733546D01*
X3491585Y3740861D01*
X3492652Y3747363D01*
X3494379Y3753053D01*
X3496665Y3757777D01*
X3499612Y3761536D01*
X3503015Y3764279D01*
X3506927Y3766007D01*
X3511296Y3766565D01*
X3516325Y3765854D01*
X3521405Y3763670D01*
X3526383Y3759911D01*
X3531108Y3754628D01*
X3529634Y3746957D01*
X3529076Y3740404D01*
X3529076Y3720337D01*
X3528364Y3710432D01*
X3525977Y3703269D01*
X3521557Y3698951D01*
X3514851Y3697478D01*
X3510432Y3698138D01*
X3506114Y3700018D01*
X3502151Y3703116D01*
X3498545Y3707333D01*
X3495548Y3712514D01*
X3493262Y3718712D01*
X3491737Y3725722D01*
X3491229Y3733546D01*
X3479646Y3733546D01*
X3479901Y3727754D01*
X3480968Y3720236D01*
X3482644Y3713276D01*
X3484879Y3706876D01*
X3487674Y3701135D01*
X3490925Y3696055D01*
X3494582Y3691636D01*
X3498596Y3687978D01*
X3502914Y3685082D01*
X3507486Y3682949D01*
X3512261Y3681679D01*
X3517137Y3681222D01*
X3523437Y3681831D01*
X3528822Y3683558D01*
X3533343Y3686505D01*
X3537000Y3690620D01*
X3539794Y3695954D01*
X3541725Y3702456D01*
X3542893Y3710127D01*
X3543300Y3719068D01*
X3543300Y3740912D01*
X3544214Y3750310D01*
X3546754Y3756304D01*
X3550564Y3759504D01*
X3555492Y3760470D01*
X3559962Y3759911D01*
X3563620Y3758336D01*
X3566718Y3755948D01*
X3569462Y3753104D01*
X3567633Y3749090D01*
X3566363Y3744823D01*
X3565651Y3740505D01*
X3565398Y3736340D01*
X3576828Y3736340D01*
X3577336Y3741165D01*
X3578758Y3745737D01*
X3581095Y3749852D01*
X3584244Y3753510D01*
X3588207Y3756507D01*
X3592880Y3758793D01*
X3598265Y3760215D01*
X3604260Y3760724D01*
X3610152Y3760215D01*
X3615334Y3758793D01*
X3619855Y3756558D01*
X3623665Y3753561D01*
X3626662Y3749954D01*
X3628847Y3745839D01*
X3630218Y3741267D01*
X3630676Y3736340D01*
X3630218Y3731412D01*
X3628847Y3726789D01*
X3626612Y3722624D01*
X3623564Y3718966D01*
X3619754Y3715969D01*
X3615232Y3713683D01*
X3610051Y3712210D01*
X3604260Y3711701D01*
X3598265Y3712210D01*
X3592880Y3713683D01*
X3588207Y3716020D01*
X3584244Y3719068D01*
X3581095Y3722725D01*
X3578758Y3726942D01*
X3577336Y3731514D01*
X3576828Y3736340D01*
X3565398Y3736340D01*
X3565702Y3730853D01*
X3566617Y3725621D01*
X3568090Y3720744D01*
X3570173Y3716121D01*
X3572713Y3711905D01*
X3575812Y3708146D01*
X3579368Y3704844D01*
X3583432Y3701999D01*
X3587902Y3699764D01*
X3592779Y3698087D01*
X3598113Y3697071D01*
X3603751Y3696715D01*
X3610914Y3697427D01*
X3617417Y3699408D01*
X3623056Y3702405D01*
X3627628Y3706114D01*
X3627628Y3683000D01*
X3640328Y3683000D01*
X3640328Y3721100D01*
X3641394Y3724249D01*
X3642309Y3727856D01*
X3642918Y3731920D01*
X3643122Y3736340D01*
X3642817Y3741775D01*
X3641851Y3747008D01*
X3640328Y3752037D01*
X3638245Y3756710D01*
X3635603Y3761028D01*
X3632454Y3764940D01*
X3628796Y3768394D01*
X3624732Y3771341D01*
X3620211Y3773728D01*
X3615232Y3775506D01*
X3609949Y3776624D01*
X3604260Y3776979D01*
X3594811Y3775760D01*
X3586530Y3772509D01*
X3579672Y3767988D01*
X3574542Y3762756D01*
X3573779Y3762756D01*
X3570173Y3766921D01*
X3565550Y3770833D01*
X3559911Y3773779D01*
X3553460Y3774948D01*
X3547364Y3774186D01*
X3542334Y3772052D01*
X3538270Y3768851D01*
X3535172Y3764787D01*
X3534410Y3764787D01*
X3529025Y3771595D01*
X3522878Y3776726D01*
X3516223Y3779926D01*
G37*
G36*
X3558794Y3669792D02*
G01*
X3551783Y3669182D01*
X3545636Y3667353D01*
X3540353Y3664508D01*
X3535984Y3660648D01*
X3532581Y3655974D01*
X3530092Y3650487D01*
X3528568Y3644392D01*
X3528060Y3637787D01*
X3528319Y3633470D01*
X3541268Y3633470D01*
X3542284Y3641344D01*
X3545586Y3647795D01*
X3551326Y3652164D01*
X3559810Y3653790D01*
X3563416Y3653485D01*
X3566820Y3652621D01*
X3570020Y3651097D01*
X3572967Y3648913D01*
X3575710Y3646017D01*
X3578199Y3642309D01*
X3580485Y3637838D01*
X3582568Y3632504D01*
X3584397Y3626256D01*
X3586073Y3619093D01*
X3587546Y3610914D01*
X3588765Y3601720D01*
X3556508Y3601720D01*
X3549954Y3609848D01*
X3545179Y3617569D01*
X3542233Y3625342D01*
X3541268Y3633470D01*
X3528319Y3633470D01*
X3529329Y3627729D01*
X3530803Y3622852D01*
X3532733Y3618128D01*
X3535070Y3613556D01*
X3537813Y3609187D01*
X3540810Y3604971D01*
X3544062Y3600958D01*
X3544062Y3600196D01*
X3530600Y3598926D01*
X3530600Y3585210D01*
X3598672Y3585210D01*
X3605072Y3585413D01*
X3611118Y3586124D01*
X3616756Y3587292D01*
X3621938Y3588969D01*
X3626612Y3591153D01*
X3630777Y3593896D01*
X3634435Y3597148D01*
X3637483Y3601008D01*
X3639870Y3605479D01*
X3641648Y3610508D01*
X3642766Y3616198D01*
X3643122Y3622548D01*
X3642766Y3628999D01*
X3641750Y3635248D01*
X3640226Y3641191D01*
X3638245Y3646830D01*
X3636010Y3652113D01*
X3631082Y3661359D01*
X3628644Y3665220D01*
X3617214Y3658362D01*
X3621582Y3651504D01*
X3625494Y3643528D01*
X3628339Y3634689D01*
X3629406Y3625087D01*
X3628745Y3618687D01*
X3626865Y3613454D01*
X3623970Y3609390D01*
X3620211Y3606241D01*
X3615740Y3604056D01*
X3610762Y3602634D01*
X3605428Y3601872D01*
X3599942Y3601720D01*
X3597656Y3618229D01*
X3596233Y3625545D01*
X3594658Y3632301D01*
X3592880Y3638448D01*
X3590950Y3644036D01*
X3588765Y3649014D01*
X3586429Y3653485D01*
X3583838Y3657346D01*
X3580993Y3660698D01*
X3577945Y3663543D01*
X3574643Y3665778D01*
X3571087Y3667556D01*
X3567277Y3668826D01*
X3563162Y3669537D01*
G37*
G36*
X3543046Y3561842D02*
G01*
X3539947Y3557727D01*
X3537051Y3553256D01*
X3534511Y3548481D01*
X3532327Y3543401D01*
X3530549Y3538067D01*
X3529177Y3532530D01*
X3528364Y3526790D01*
X3528060Y3520948D01*
X3528720Y3511956D01*
X3530600Y3504133D01*
X3533546Y3497427D01*
X3537508Y3491890D01*
X3542233Y3487521D01*
X3547668Y3484372D01*
X3553663Y3482492D01*
X3560064Y3481832D01*
X3567226Y3482644D01*
X3573221Y3484879D01*
X3578148Y3488334D01*
X3582263Y3492754D01*
X3585667Y3497935D01*
X3588613Y3503676D01*
X3597046Y3524859D01*
X3601008Y3532479D01*
X3606241Y3537762D01*
X3613404Y3539744D01*
X3619754Y3538474D01*
X3624986Y3534613D01*
X3628593Y3527958D01*
X3629914Y3518408D01*
X3629151Y3511346D01*
X3627069Y3504895D01*
X3624021Y3498900D01*
X3620262Y3493262D01*
X3630929Y3485134D01*
X3635705Y3491992D01*
X3639616Y3499967D01*
X3642156Y3508806D01*
X3643122Y3518408D01*
X3642512Y3526891D01*
X3640734Y3534308D01*
X3637940Y3540709D01*
X3634232Y3546043D01*
X3629710Y3550208D01*
X3624478Y3553256D01*
X3618687Y3555136D01*
X3612387Y3555746D01*
X3605936Y3554984D01*
X3600450Y3552901D01*
X3595725Y3549599D01*
X3591763Y3545382D01*
X3588410Y3540455D01*
X3585565Y3534968D01*
X3583076Y3529177D01*
X3577234Y3513988D01*
X3575151Y3509670D01*
X3572764Y3505758D01*
X3570071Y3502406D01*
X3566972Y3499815D01*
X3563416Y3498189D01*
X3559301Y3497579D01*
X3552139Y3499002D01*
X3546348Y3503269D01*
X3542436Y3510432D01*
X3541014Y3520440D01*
X3541979Y3530041D01*
X3544671Y3538575D01*
X3548837Y3546246D01*
X3554222Y3553460D01*
G37*
G36*
X7512558Y790448D02*
G01*
X7507681Y785368D01*
X7503312Y779881D01*
X7499553Y773988D01*
X7496352Y767689D01*
X7493812Y760984D01*
X7491984Y753922D01*
X7490866Y746455D01*
X7490459Y738632D01*
X7490815Y731266D01*
X7491933Y724357D01*
X7493660Y718007D01*
X7496048Y712165D01*
X7499045Y706932D01*
X7502550Y702310D01*
X7506512Y698296D01*
X7510932Y694994D01*
X7515758Y692353D01*
X7520940Y690422D01*
X7526375Y689254D01*
X7532116Y688848D01*
X7539837Y689457D01*
X7546594Y691235D01*
X7552436Y694080D01*
X7557465Y697839D01*
X7561783Y702360D01*
X7565542Y707593D01*
X7568844Y713384D01*
X7571740Y719582D01*
X7582814Y745540D01*
X7587284Y754075D01*
X7590028Y757885D01*
X7593228Y761187D01*
X7597038Y763778D01*
X7601508Y765454D01*
X7606792Y766064D01*
X7611770Y765505D01*
X7616240Y763981D01*
X7620152Y761441D01*
X7623454Y758037D01*
X7626096Y753872D01*
X7628026Y748893D01*
X7629245Y743305D01*
X7629652Y737108D01*
X7629398Y731926D01*
X7628636Y727049D01*
X7627416Y722426D01*
X7625791Y718058D01*
X7623708Y713943D01*
X7621270Y710031D01*
X7618526Y706323D01*
X7615428Y702818D01*
X7626096Y693928D01*
X7629956Y697992D01*
X7633462Y702462D01*
X7636560Y707390D01*
X7639253Y712673D01*
X7641386Y718312D01*
X7643012Y724306D01*
X7644028Y730554D01*
X7644384Y737108D01*
X7644028Y743559D01*
X7643063Y749706D01*
X7641488Y755446D01*
X7639354Y760780D01*
X7636611Y765657D01*
X7633411Y770026D01*
X7629753Y773836D01*
X7625638Y777036D01*
X7621117Y779627D01*
X7616240Y781507D01*
X7611059Y782675D01*
X7605522Y783082D01*
X7597952Y782370D01*
X7591348Y780288D01*
X7585659Y777138D01*
X7580782Y773125D01*
X7576616Y768451D01*
X7573111Y763371D01*
X7570165Y758088D01*
X7567675Y752856D01*
X7555941Y726084D01*
X7553553Y721309D01*
X7551013Y716991D01*
X7548168Y713232D01*
X7544866Y710133D01*
X7541006Y707847D01*
X7536383Y706374D01*
X7530846Y705866D01*
X7525359Y706424D01*
X7520431Y708152D01*
X7516012Y710895D01*
X7512303Y714654D01*
X7509306Y719328D01*
X7507071Y724916D01*
X7505649Y731367D01*
X7505192Y738632D01*
X7505547Y744474D01*
X7506512Y750265D01*
X7508138Y755853D01*
X7510322Y761288D01*
X7513015Y766470D01*
X7516215Y771398D01*
X7519924Y776020D01*
X7523988Y780288D01*
G37*
G36*
X7641844Y674370D02*
G01*
X7493000Y642112D01*
X7493000Y622554D01*
X7585709Y599440D01*
X7619492Y591566D01*
X7619492Y590804D01*
X7585709Y583438D01*
X7493000Y559816D01*
X7493000Y539750D01*
X7641844Y508508D01*
X7641844Y524510D01*
X7547152Y543255D01*
X7510780Y549656D01*
X7510780Y550672D01*
X7559040Y561848D01*
X7641844Y583184D01*
X7641844Y598678D01*
X7553096Y621182D01*
X7510780Y630682D01*
X7510780Y631444D01*
X7559040Y640588D01*
X7641844Y657098D01*
G37*
G36*
X7493000Y481838D02*
G01*
X7493000Y465074D01*
X7641844Y465074D01*
X7641844Y481838D01*
G37*
G36*
X7627620Y437896D02*
G01*
X7627620Y392430D01*
X7493000Y392430D01*
X7493000Y375412D01*
X7627620Y375412D01*
X7627620Y329946D01*
X7641844Y329946D01*
X7641844Y437896D01*
G37*
G36*
X7567422Y316992D02*
G01*
X7560309Y316788D01*
X7553553Y316179D01*
X7547051Y315214D01*
X7540904Y313842D01*
X7535062Y312115D01*
X7529525Y310083D01*
X7524343Y307695D01*
X7519466Y305003D01*
X7514996Y302006D01*
X7510830Y298704D01*
X7507071Y295148D01*
X7503668Y291338D01*
X7500620Y287223D01*
X7497978Y282956D01*
X7495692Y278434D01*
X7493812Y273710D01*
X7492390Y268782D01*
X7491323Y263652D01*
X7490663Y258419D01*
X7490459Y252984D01*
X7490815Y245973D01*
X7491882Y239369D01*
X7493609Y233171D01*
X7495997Y227380D01*
X7498994Y221945D01*
X7502652Y216814D01*
X7506919Y212039D01*
X7511796Y207517D01*
X7522209Y216916D01*
X7518349Y220624D01*
X7514945Y224485D01*
X7512050Y228498D01*
X7509611Y232714D01*
X7507681Y237185D01*
X7506309Y241858D01*
X7505496Y246786D01*
X7505192Y251967D01*
X7505496Y257352D01*
X7506309Y262483D01*
X7507681Y267309D01*
X7509560Y271881D01*
X7511948Y276098D01*
X7514844Y280009D01*
X7518196Y283616D01*
X7522057Y286918D01*
X7526324Y289814D01*
X7531049Y292404D01*
X7536180Y294589D01*
X7541717Y296418D01*
X7547660Y297840D01*
X7553959Y298856D01*
X7560665Y299516D01*
X7567675Y299720D01*
X7574686Y299516D01*
X7581341Y298856D01*
X7587640Y297738D01*
X7593533Y296265D01*
X7599070Y294335D01*
X7604150Y292100D01*
X7608824Y289458D01*
X7613040Y286461D01*
X7616850Y283108D01*
X7620152Y279450D01*
X7622997Y275488D01*
X7625384Y271221D01*
X7627213Y266649D01*
X7628585Y261823D01*
X7629398Y256794D01*
X7629652Y251460D01*
X7628585Y242265D01*
X7625689Y234086D01*
X7621168Y226821D01*
X7615428Y220471D01*
X7626350Y211328D01*
X7629804Y214731D01*
X7633157Y218643D01*
X7636205Y223012D01*
X7638897Y227888D01*
X7641132Y233222D01*
X7642910Y238963D01*
X7643977Y245160D01*
X7644384Y251714D01*
X7644180Y257251D01*
X7643520Y262686D01*
X7642453Y267919D01*
X7640980Y272948D01*
X7639050Y277774D01*
X7636764Y282397D01*
X7634122Y286766D01*
X7631023Y290931D01*
X7627620Y294843D01*
X7623809Y298450D01*
X7619644Y301802D01*
X7615123Y304850D01*
X7610297Y307594D01*
X7605115Y309981D01*
X7599578Y312064D01*
X7593787Y313791D01*
X7587640Y315163D01*
X7581188Y316179D01*
X7574432Y316788D01*
G37*
G36*
X7493000Y179324D02*
G01*
X7493000Y162560D01*
X7564120Y162560D01*
X7564120Y90678D01*
X7493000Y90678D01*
X7493000Y73914D01*
X7641844Y73914D01*
X7641844Y90678D01*
X7578852Y90678D01*
X7578852Y162560D01*
X7641844Y162560D01*
X7641844Y179324D01*
G37*
D10*
X2371343Y-382778D02*
G01*
X2360929Y-372363D01*
X2345436Y-367284D01*
X2324608Y-367284D01*
X2309113Y-372363D01*
X2298700Y-382778D01*
X2298700Y-393192D01*
X2303779Y-403605D01*
X2309113Y-408939D01*
X2319527Y-414020D01*
X2350770Y-424434D01*
X2360929Y-429513D01*
X2366263Y-434847D01*
X2371343Y-445262D01*
X2371343Y-460755D01*
X2360929Y-471170D01*
X2345436Y-476250D01*
X2324608Y-476250D01*
X2309113Y-471170D01*
X2298700Y-460755D01*
X2405634Y-367284D02*
G01*
X2405634Y-476250D01*
X2405634Y-367284D02*
G01*
X2473197Y-367284D01*
X2405634Y-419100D02*
G01*
X2447290Y-419100D01*
X2405634Y-476250D02*
G01*
X2473197Y-476250D01*
X2507488Y-367284D02*
G01*
X2507488Y-476250D01*
X2507488Y-367284D02*
G01*
X2554224Y-367284D01*
X2569972Y-372363D01*
X2575052Y-377697D01*
X2580386Y-388112D01*
X2580386Y-398526D01*
X2575052Y-408939D01*
X2569972Y-414020D01*
X2554224Y-419100D01*
X2507488Y-419100D01*
X2543809Y-419100D02*
G01*
X2580386Y-476250D01*
X2614675Y-367284D02*
G01*
X2656077Y-476250D01*
X2697734Y-367284D02*
G01*
X2656077Y-476250D01*
X2737104Y-393192D02*
G01*
X2737104Y-388112D01*
X2742438Y-377697D01*
X2747518Y-372363D01*
X2757931Y-367284D01*
X2778759Y-367284D01*
X2789174Y-372363D01*
X2794254Y-377697D01*
X2799588Y-388112D01*
X2799588Y-398526D01*
X2794254Y-408939D01*
X2783840Y-424434D01*
X2732024Y-476250D01*
X2804668Y-476250D01*
X1054100Y864615D02*
G01*
X1054100Y755650D01*
X1054100Y864615D02*
G01*
X1100836Y864615D01*
X1116329Y859536D01*
X1121663Y854202D01*
X1126744Y843787D01*
X1126744Y833373D01*
X1121663Y822960D01*
X1116329Y817879D01*
X1100836Y812800D01*
X1054100Y812800D02*
G01*
X1100836Y812800D01*
X1116329Y807465D01*
X1121663Y802386D01*
X1126744Y791971D01*
X1126744Y776223D01*
X1121663Y765810D01*
X1116329Y760729D01*
X1100836Y755650D01*
X1054100Y755650D01*
X1166368Y838707D02*
G01*
X1166368Y843787D01*
X1171447Y854202D01*
X1176781Y859536D01*
X1187195Y864615D01*
X1207770Y864615D01*
X1218184Y859536D01*
X1223518Y854202D01*
X1228597Y843787D01*
X1228597Y833373D01*
X1223518Y822960D01*
X1213104Y807465D01*
X1161034Y755650D01*
X1233931Y755650D01*
X3366515Y4548378D02*
G01*
X3257550Y4548378D01*
X3366515Y4584700D02*
G01*
X3366515Y4512055D01*
X3366515Y4477765D02*
G01*
X3257550Y4477765D01*
X3366515Y4477765D02*
G01*
X3366515Y4431029D01*
X3361436Y4415281D01*
X3356102Y4410202D01*
X3345688Y4404868D01*
X3335274Y4404868D01*
X3324859Y4410202D01*
X3319779Y4415281D01*
X3314700Y4431029D01*
X3314700Y4477765D01*
X3314700Y4441189D02*
G01*
X3257550Y4404868D01*
X3366515Y4370578D02*
G01*
X3257550Y4370578D01*
X3366515Y4370578D02*
G01*
X3366515Y4303013D01*
X3314700Y4370578D02*
G01*
X3314700Y4329176D01*
X3257550Y4370578D02*
G01*
X3257550Y4303013D01*
X3366515Y4268723D02*
G01*
X3257550Y4227321D01*
X3366515Y4185665D02*
G01*
X3257550Y4227321D01*
X3366515Y4151376D02*
G01*
X3257550Y4151376D01*
X3366515Y4117086D02*
G01*
X3257550Y4117086D01*
X3366515Y4117086D02*
G01*
X3366515Y4070350D01*
X3361436Y4054855D01*
X3356102Y4049521D01*
X3345688Y4044442D01*
X3330193Y4044442D01*
X3319779Y4049521D01*
X3314700Y4054855D01*
X3309365Y4070350D01*
X3309365Y4117086D01*
X3366515Y4010152D02*
G01*
X3257550Y4010152D01*
X3366515Y3902963D02*
G01*
X3257550Y3975862D01*
X3366515Y3975862D02*
G01*
X3366515Y3902963D01*
X3257550Y3975862D02*
G01*
X3257550Y3902963D01*
X3366515Y3796029D02*
G01*
X3257550Y3868673D01*
X3366515Y3868673D02*
G01*
X3366515Y3796029D01*
X3257550Y3868673D02*
G01*
X3257550Y3796029D01*
X3366515Y3720084D02*
G01*
X3257550Y3761739D01*
X3366515Y3720084D02*
G01*
X3257550Y3678681D01*
X3293872Y3746245D02*
G01*
X3293872Y3694176D01*
X3351022Y3571494D02*
G01*
X3361436Y3581907D01*
X3366515Y3597655D01*
X3366515Y3618229D01*
X3361436Y3633978D01*
X3351022Y3644392D01*
X3340608Y3644392D01*
X3330193Y3639057D01*
X3324859Y3633978D01*
X3319779Y3623563D01*
X3309365Y3592321D01*
X3304286Y3581907D01*
X3298952Y3576828D01*
X3288538Y3571494D01*
X3273043Y3571494D01*
X3262629Y3581907D01*
X3257550Y3597655D01*
X3257550Y3618229D01*
X3262629Y3633978D01*
X3273043Y3644392D01*
X1041400Y267715D02*
G01*
X1041400Y158750D01*
X1041400Y267715D02*
G01*
X1088136Y267715D01*
X1103629Y262636D01*
X1108963Y257302D01*
X1114044Y246887D01*
X1114044Y236473D01*
X1108963Y226060D01*
X1103629Y220979D01*
X1088136Y215900D01*
X1041400Y215900D02*
G01*
X1088136Y215900D01*
X1103629Y210565D01*
X1108963Y205486D01*
X1114044Y195071D01*
X1114044Y179323D01*
X1108963Y168910D01*
X1103629Y163829D01*
X1088136Y158750D01*
X1041400Y158750D01*
X1148334Y246887D02*
G01*
X1158747Y252221D01*
X1174495Y267715D01*
X1174495Y158750D01*
X876300Y3671315D02*
G01*
X876300Y3562350D01*
X876300Y3562350D02*
G01*
X938529Y3562350D01*
X972820Y3671315D02*
G01*
X972820Y3593337D01*
X978154Y3577844D01*
X988568Y3567429D01*
X1004062Y3562350D01*
X1014476Y3562350D01*
X1029970Y3567429D01*
X1040384Y3577844D01*
X1045718Y3593337D01*
X1045718Y3671315D01*
X1080007Y3671315D02*
G01*
X1121410Y3562350D01*
X1163065Y3671315D02*
G01*
X1121410Y3562350D01*
X1197355Y3650487D02*
G01*
X1207770Y3655821D01*
X1223263Y3671315D01*
X1223263Y3562350D01*
X889000Y3188715D02*
G01*
X889000Y3079750D01*
X889000Y3079750D02*
G01*
X951229Y3079750D01*
X985520Y3188715D02*
G01*
X985520Y3110737D01*
X990854Y3095244D01*
X1001268Y3084829D01*
X1016762Y3079750D01*
X1027176Y3079750D01*
X1042670Y3084829D01*
X1053084Y3095244D01*
X1058418Y3110737D01*
X1058418Y3188715D01*
X1092707Y3188715D02*
G01*
X1134110Y3079750D01*
X1175765Y3188715D02*
G01*
X1134110Y3079750D01*
X1215389Y3162807D02*
G01*
X1215389Y3167887D01*
X1220470Y3178302D01*
X1225550Y3183636D01*
X1235963Y3188715D01*
X1256792Y3188715D01*
X1267205Y3183636D01*
X1272539Y3178302D01*
X1277620Y3167887D01*
X1277620Y3157473D01*
X1272539Y3147060D01*
X1262126Y3131565D01*
X1210055Y3079750D01*
X1282700Y3079750D01*
X5992622Y748792D02*
G01*
X5997956Y738378D01*
X6008370Y727963D01*
X6018529Y722884D01*
X6039358Y722884D01*
X6049772Y727963D01*
X6060186Y738378D01*
X6065520Y748792D01*
X6070600Y764539D01*
X6070600Y790447D01*
X6065520Y805942D01*
X6060186Y816355D01*
X6049772Y826770D01*
X6039358Y831850D01*
X6018529Y831850D01*
X6008370Y826770D01*
X5997956Y816355D01*
X5992622Y805942D01*
X5958331Y722884D02*
G01*
X5958331Y831850D01*
X5885688Y722884D02*
G01*
X5885688Y831850D01*
X5958331Y774700D02*
G01*
X5885688Y774700D01*
X5809741Y722884D02*
G01*
X5851397Y831850D01*
X5809741Y722884D02*
G01*
X5768340Y831850D01*
X5835650Y795528D02*
G01*
X5783834Y795528D01*
X5734050Y722884D02*
G01*
X5734050Y831850D01*
X5734050Y722884D02*
G01*
X5687059Y722884D01*
X5671565Y727963D01*
X5666486Y733297D01*
X5661152Y743712D01*
X5661152Y754126D01*
X5666486Y764539D01*
X5671565Y769620D01*
X5687059Y774700D01*
X5734050Y774700D01*
X5697474Y774700D02*
G01*
X5661152Y831850D01*
X5548884Y748792D02*
G01*
X5554218Y738378D01*
X5564631Y727963D01*
X5575045Y722884D01*
X5595620Y722884D01*
X5606034Y727963D01*
X5616447Y738378D01*
X5621781Y748792D01*
X5626861Y764539D01*
X5626861Y790447D01*
X5621781Y805942D01*
X5616447Y816355D01*
X5606034Y826770D01*
X5595620Y831850D01*
X5575045Y831850D01*
X5564631Y826770D01*
X5554218Y816355D01*
X5548884Y805942D01*
X5548884Y790447D01*
X5575045Y790447D02*
G01*
X5548884Y790447D01*
X5514593Y722884D02*
G01*
X5514593Y831850D01*
X5514593Y722884D02*
G01*
X5447029Y722884D01*
X5514593Y774700D02*
G01*
X5473191Y774700D01*
X5514593Y831850D02*
G01*
X5447029Y831850D01*
X5412740Y722884D02*
G01*
X5412740Y831850D01*
X5412740Y722884D02*
G01*
X5366004Y722884D01*
X5350509Y727963D01*
X5345429Y733297D01*
X5340095Y743712D01*
X5340095Y754126D01*
X5345429Y764539D01*
X5350509Y769620D01*
X5366004Y774700D01*
X5412740Y774700D01*
X5376418Y774700D02*
G01*
X5340095Y831850D01*
D11*
X6985000Y913129D02*
G01*
X6985000Y1034542D01*
X6946900Y913129D02*
G01*
X6946900Y1034542D01*
X6946900Y913129D02*
G01*
X6866127Y1034542D01*
X6866127Y913129D02*
G01*
X6866127Y1034542D01*
X6775958Y930655D02*
G01*
X6775958Y1034542D01*
X6828027Y982471D02*
G01*
X6724141Y982471D01*
X6985000Y2310129D02*
G01*
X6985000Y2431542D01*
X6946900Y2310129D02*
G01*
X6946900Y2431542D01*
X6946900Y2310129D02*
G01*
X6866127Y2431542D01*
X6866127Y2310129D02*
G01*
X6866127Y2431542D01*
X6828027Y2379471D02*
G01*
X6724141Y2379471D01*
X5435600Y1230629D02*
G01*
X5435600Y1352042D01*
X5435600Y1230629D02*
G01*
X5383529Y1230629D01*
X5366258Y1236471D01*
X5360670Y1242313D01*
X5354827Y1253744D01*
X5354827Y1265428D01*
X5360670Y1276857D01*
X5366258Y1282700D01*
X5383529Y1288542D01*
X5435600Y1288542D02*
G01*
X5383529Y1288542D01*
X5366258Y1294129D01*
X5360670Y1299971D01*
X5354827Y1311655D01*
X5354827Y1328928D01*
X5360670Y1340357D01*
X5366258Y1346200D01*
X5383529Y1352042D01*
X5435600Y1352042D01*
X5264658Y1248155D02*
G01*
X5264658Y1352042D01*
X5316727Y1299971D02*
G01*
X5212841Y1299971D01*
X5435600Y1992629D02*
G01*
X5435600Y2114042D01*
X5435600Y1992629D02*
G01*
X5383529Y1992629D01*
X5366258Y1998471D01*
X5360670Y2004313D01*
X5354827Y2015744D01*
X5354827Y2027428D01*
X5360670Y2038857D01*
X5366258Y2044700D01*
X5383529Y2050542D01*
X5435600Y2050542D02*
G01*
X5383529Y2050542D01*
X5366258Y2056129D01*
X5360670Y2061971D01*
X5354827Y2073655D01*
X5354827Y2090928D01*
X5360670Y2102357D01*
X5366258Y2108200D01*
X5383529Y2114042D01*
X5435600Y2114042D01*
X5316727Y2061971D02*
G01*
X5212841Y2061971D01*
D12*
X7415529Y1560576D02*
G01*
X7415529Y1681734D01*
X7407402Y1705863D01*
X7391400Y1722120D01*
X7367015Y1730247D01*
X7350759Y1730247D01*
X7326629Y1722120D01*
X7310374Y1705863D01*
X7302500Y1681734D01*
X7302500Y1560576D01*
X7135875Y1584705D02*
G01*
X7152131Y1568450D01*
X7176261Y1560576D01*
X7208520Y1560576D01*
X7232904Y1568450D01*
X7249159Y1584705D01*
X7249159Y1600962D01*
X7241031Y1616963D01*
X7232904Y1625092D01*
X7216647Y1633220D01*
X7168134Y1649476D01*
X7152131Y1657350D01*
X7144004Y1665478D01*
X7135875Y1681734D01*
X7135875Y1705863D01*
X7152131Y1722120D01*
X7176261Y1730247D01*
X7208520Y1730247D01*
X7232904Y1722120D01*
X7249159Y1705863D01*
X7082536Y1560576D02*
G01*
X7082536Y1730247D01*
X7082536Y1560576D02*
G01*
X7009891Y1560576D01*
X6985508Y1568450D01*
X6977379Y1576578D01*
X6969506Y1592834D01*
X6969506Y1609089D01*
X6977379Y1625092D01*
X6985508Y1633220D01*
X7009891Y1641347D01*
X7082536Y1641347D02*
G01*
X7009891Y1641347D01*
X6985508Y1649476D01*
X6977379Y1657350D01*
X6969506Y1673605D01*
X6969506Y1697989D01*
X6977379Y1713992D01*
X6985508Y1722120D01*
X7009891Y1730247D01*
X7082536Y1730247D01*
D11*
X5629656Y913129D02*
G01*
X5641086Y918971D01*
X5652770Y930655D01*
X5658358Y942086D01*
X5664200Y959357D01*
X5664200Y988313D01*
X5658358Y1005586D01*
X5652770Y1017270D01*
X5641086Y1028700D01*
X5629656Y1034542D01*
X5606541Y1034542D01*
X5594858Y1028700D01*
X5583427Y1017270D01*
X5577586Y1005586D01*
X5571743Y988313D01*
X5571743Y959357D01*
X5577586Y942086D01*
X5583427Y930655D01*
X5594858Y918971D01*
X5606541Y913129D01*
X5629656Y913129D01*
X5533643Y913129D02*
G01*
X5533643Y999744D01*
X5528056Y1017270D01*
X5516372Y1028700D01*
X5499100Y1034542D01*
X5487670Y1034542D01*
X5470143Y1028700D01*
X5458713Y1017270D01*
X5452872Y999744D01*
X5452872Y913129D01*
X5374386Y913129D02*
G01*
X5374386Y1034542D01*
X5414772Y913129D02*
G01*
X5334000Y913129D01*
X5243829Y930655D02*
G01*
X5243829Y1034542D01*
X5295900Y982471D02*
G01*
X5192013Y982471D01*
X5629656Y2310129D02*
G01*
X5641086Y2315971D01*
X5652770Y2327655D01*
X5658358Y2339086D01*
X5664200Y2356357D01*
X5664200Y2385313D01*
X5658358Y2402586D01*
X5652770Y2414270D01*
X5641086Y2425700D01*
X5629656Y2431542D01*
X5606541Y2431542D01*
X5594858Y2425700D01*
X5583427Y2414270D01*
X5577586Y2402586D01*
X5571743Y2385313D01*
X5571743Y2356357D01*
X5577586Y2339086D01*
X5583427Y2327655D01*
X5594858Y2315971D01*
X5606541Y2310129D01*
X5629656Y2310129D01*
X5533643Y2310129D02*
G01*
X5533643Y2396744D01*
X5528056Y2414270D01*
X5516372Y2425700D01*
X5499100Y2431542D01*
X5487670Y2431542D01*
X5470143Y2425700D01*
X5458713Y2414270D01*
X5452872Y2396744D01*
X5452872Y2310129D01*
X5374386Y2310129D02*
G01*
X5374386Y2431542D01*
X5414772Y2310129D02*
G01*
X5334000Y2310129D01*
X5295900Y2379471D02*
G01*
X5192013Y2379471D01*
D10*
X2667000Y2744215D02*
G01*
X2667000Y2635250D01*
X2667000Y2744215D02*
G01*
X2703322Y2744215D01*
X2719070Y2739136D01*
X2729229Y2728721D01*
X2734563Y2718307D01*
X2739643Y2702560D01*
X2739643Y2676652D01*
X2734563Y2661157D01*
X2729229Y2650744D01*
X2719070Y2640329D01*
X2703322Y2635250D01*
X2667000Y2635250D01*
X2773934Y2744215D02*
G01*
X2773934Y2635250D01*
X2773934Y2744215D02*
G01*
X2810509Y2744215D01*
X2826004Y2739136D01*
X2836418Y2728721D01*
X2841497Y2718307D01*
X2846831Y2702560D01*
X2846831Y2676652D01*
X2841497Y2661157D01*
X2836418Y2650744D01*
X2826004Y2640329D01*
X2810509Y2635250D01*
X2773934Y2635250D01*
X2881122Y2681986D02*
G01*
X2974593Y2681986D01*
X3008884Y2744215D02*
G01*
X3008884Y2635250D01*
X3008884Y2744215D02*
G01*
X3045206Y2744215D01*
X3060700Y2739136D01*
X3071113Y2728721D01*
X3076447Y2718307D01*
X3081527Y2702560D01*
X3081527Y2676652D01*
X3076447Y2661157D01*
X3071113Y2650744D01*
X3060700Y2640329D01*
X3045206Y2635250D01*
X3008884Y2635250D01*
X3193795Y2718307D02*
G01*
X3188715Y2728721D01*
X3178302Y2739136D01*
X3167888Y2744215D01*
X3147059Y2744215D01*
X3136645Y2739136D01*
X3126231Y2728721D01*
X3121152Y2718307D01*
X3115818Y2702560D01*
X3115818Y2676652D01*
X3121152Y2661157D01*
X3126231Y2650744D01*
X3136645Y2640329D01*
X3147059Y2635250D01*
X3167888Y2635250D01*
X3178302Y2640329D01*
X3188715Y2650744D01*
X3193795Y2661157D01*
D11*
X4062729Y1651000D02*
G01*
X4184141Y1651000D01*
X4062729Y1689100D02*
G01*
X4184141Y1689100D01*
X4062729Y1689100D02*
G01*
X4184141Y1769871D01*
X4062729Y1769871D02*
G01*
X4184141Y1769871D01*
X1014729Y1628394D02*
G01*
X1020571Y1616963D01*
X1032255Y1605279D01*
X1043686Y1599692D01*
X1060957Y1593850D01*
X1089913Y1593850D01*
X1107186Y1599692D01*
X1118870Y1605279D01*
X1130300Y1616963D01*
X1136142Y1628394D01*
X1136142Y1651507D01*
X1130300Y1663192D01*
X1118870Y1674621D01*
X1107186Y1680463D01*
X1089913Y1686305D01*
X1060957Y1686305D01*
X1043686Y1680463D01*
X1032255Y1674621D01*
X1020571Y1663192D01*
X1014729Y1651507D01*
X1014729Y1628394D01*
X1014729Y1724405D02*
G01*
X1101344Y1724405D01*
X1118870Y1729994D01*
X1130300Y1741678D01*
X1136142Y1758950D01*
X1136142Y1770379D01*
X1130300Y1787905D01*
X1118870Y1799336D01*
X1101344Y1805178D01*
X1014729Y1805178D01*
X1014729Y1883663D02*
G01*
X1136142Y1883663D01*
X1014729Y1843278D02*
G01*
X1014729Y1924050D01*
D10*
X4622805Y5817618D02*
G01*
X4622805Y5708652D01*
X4622805Y5817618D02*
G01*
X4690369Y5817618D01*
X4622805Y5765802D02*
G01*
X4664461Y5765802D01*
X4622805Y5708652D02*
G01*
X4690369Y5708652D01*
X4797303Y5802124D02*
G01*
X4786889Y5812538D01*
X4771395Y5817618D01*
X4750567Y5817618D01*
X4735073Y5812538D01*
X4724659Y5802124D01*
X4724659Y5791710D01*
X4729739Y5781296D01*
X4735073Y5775962D01*
X4745487Y5770882D01*
X4776475Y5760468D01*
X4786889Y5755388D01*
X4792223Y5750054D01*
X4797303Y5739640D01*
X4797303Y5724146D01*
X4786889Y5713732D01*
X4771395Y5708652D01*
X4750567Y5708652D01*
X4735073Y5713732D01*
X4724659Y5724146D01*
X4831593Y5817618D02*
G01*
X4831593Y5708652D01*
X4831593Y5817618D02*
G01*
X4878329Y5817618D01*
X4894077Y5812538D01*
X4899157Y5807204D01*
X4904491Y5796790D01*
X4904491Y5781296D01*
X4899157Y5770882D01*
X4894077Y5765802D01*
X4878329Y5760468D01*
X4831593Y5760468D01*
X4949195Y5817618D02*
G01*
X5006345Y5817618D01*
X4975103Y5775962D01*
X4990597Y5775962D01*
X5001011Y5770882D01*
X5006345Y5765802D01*
X5011425Y5750054D01*
X5011425Y5739640D01*
X5006345Y5724146D01*
X4995931Y5713732D01*
X4980183Y5708652D01*
X4964689Y5708652D01*
X4949195Y5713732D01*
X4943861Y5718812D01*
X4938781Y5729226D01*
X5050795Y5791710D02*
G01*
X5050795Y5796790D01*
X5056129Y5807204D01*
X5061209Y5812538D01*
X5071623Y5817618D01*
X5092451Y5817618D01*
X5102865Y5812538D01*
X5107945Y5807204D01*
X5113279Y5796790D01*
X5113279Y5786376D01*
X5107945Y5775962D01*
X5097785Y5760468D01*
X5045715Y5708652D01*
X5118359Y5708652D01*
X6274815Y495300D02*
G01*
X6165850Y495300D01*
X6274815Y461010D02*
G01*
X6165850Y461010D01*
X6274815Y461010D02*
G01*
X6274815Y414273D01*
X6269736Y398779D01*
X6264402Y393445D01*
X6253988Y388365D01*
X6243574Y388365D01*
X6233159Y393445D01*
X6228079Y398779D01*
X6223000Y414273D01*
X6223000Y461010D01*
X6223000Y424687D02*
G01*
X6165850Y388365D01*
X6274815Y354076D02*
G01*
X6165850Y354076D01*
X6165850Y354076D02*
G01*
X6165850Y291592D01*
X6274815Y184657D02*
G01*
X6165850Y257302D01*
X6274815Y257302D02*
G01*
X6274815Y184657D01*
X6165850Y257302D02*
G01*
X6165850Y184657D01*
X6274815Y98297D02*
G01*
X6202172Y150368D01*
X6202172Y72389D01*
X6274815Y98297D02*
G01*
X6165850Y98297D01*
X6274815Y-13970D02*
G01*
X6202172Y38100D01*
X6202172Y-39878D01*
X6274815Y-13970D02*
G01*
X6165850Y-13970D01*
X6274815Y-74168D02*
G01*
X6165850Y-74168D01*
X6274815Y-74168D02*
G01*
X6165850Y-146812D01*
X6274815Y-146812D02*
G01*
X6165850Y-146812D01*
X6274815Y-181102D02*
G01*
X6165850Y-181102D01*
X6274815Y-181102D02*
G01*
X6274815Y-227837D01*
X6269736Y-243586D01*
X6264402Y-248665D01*
X6253988Y-254000D01*
X6238493Y-254000D01*
X6228079Y-248665D01*
X6223000Y-243586D01*
X6217665Y-227837D01*
X6217665Y-181102D01*
X6274815Y-288289D02*
G01*
X6165850Y-288289D01*
X6274815Y-288289D02*
G01*
X6274815Y-335026D01*
X6269736Y-350520D01*
X6264402Y-355600D01*
X6253988Y-360934D01*
X6243574Y-360934D01*
X6233159Y-355600D01*
X6228079Y-350520D01*
X6223000Y-335026D01*
X6223000Y-288289D02*
G01*
X6223000Y-335026D01*
X6217665Y-350520D01*
X6212586Y-355600D01*
X6202172Y-360934D01*
X6186424Y-360934D01*
X6176009Y-355600D01*
X6170929Y-350520D01*
X6165850Y-335026D01*
X6165850Y-288289D01*
X6274815Y-395223D02*
G01*
X6165850Y-395223D01*
X6274815Y-395223D02*
G01*
X6274815Y-462787D01*
X6223000Y-395223D02*
G01*
X6223000Y-436879D01*
X7062215Y546100D02*
G01*
X6953250Y546100D01*
X7062215Y511810D02*
G01*
X6953250Y511810D01*
X7062215Y511810D02*
G01*
X7062215Y465073D01*
X7057136Y449579D01*
X7051802Y444245D01*
X7041388Y439165D01*
X7030974Y439165D01*
X7020559Y444245D01*
X7015479Y449579D01*
X7010400Y465073D01*
X7010400Y511810D01*
X7010400Y475487D02*
G01*
X6953250Y439165D01*
X7062215Y404876D02*
G01*
X6953250Y404876D01*
X6953250Y404876D02*
G01*
X6953250Y342392D01*
X7062215Y235457D02*
G01*
X6953250Y308102D01*
X7062215Y308102D02*
G01*
X7062215Y235457D01*
X6953250Y308102D02*
G01*
X6953250Y235457D01*
X7062215Y149097D02*
G01*
X6989572Y201168D01*
X6989572Y123189D01*
X7062215Y149097D02*
G01*
X6953250Y149097D01*
X7062215Y36829D02*
G01*
X6989572Y88900D01*
X6989572Y10921D01*
X7062215Y36829D02*
G01*
X6953250Y36829D01*
X7062215Y-23368D02*
G01*
X6953250Y-23368D01*
X7062215Y-23368D02*
G01*
X6953250Y-96012D01*
X7062215Y-96012D02*
G01*
X6953250Y-96012D01*
X7062215Y-130302D02*
G01*
X6953250Y-130302D01*
X7062215Y-130302D02*
G01*
X7062215Y-177037D01*
X7057136Y-192786D01*
X7051802Y-197865D01*
X7041388Y-203200D01*
X7025893Y-203200D01*
X7015479Y-197865D01*
X7010400Y-192786D01*
X7005065Y-177037D01*
X7005065Y-130302D01*
X7062215Y-237489D02*
G01*
X6953250Y-237489D01*
X7062215Y-237489D02*
G01*
X7062215Y-284226D01*
X7057136Y-299720D01*
X7051802Y-304800D01*
X7041388Y-310134D01*
X7030974Y-310134D01*
X7020559Y-304800D01*
X7015479Y-299720D01*
X7010400Y-284226D01*
X7010400Y-237489D02*
G01*
X7010400Y-284226D01*
X7005065Y-299720D01*
X6999986Y-304800D01*
X6989572Y-310134D01*
X6973824Y-310134D01*
X6963409Y-304800D01*
X6958329Y-299720D01*
X6953250Y-284226D01*
X6953250Y-237489D01*
X7062215Y-344423D02*
G01*
X6953250Y-344423D01*
X7062215Y-344423D02*
G01*
X7062215Y-411987D01*
X7010400Y-344423D02*
G01*
X7010400Y-386079D01*
X6916674Y-446278D02*
G01*
X6916674Y-539750D01*
X7036308Y-579120D02*
G01*
X7041388Y-579120D01*
X7051802Y-584454D01*
X7057136Y-589534D01*
X7062215Y-599947D01*
X7062215Y-620776D01*
X7057136Y-631189D01*
X7051802Y-636270D01*
X7041388Y-641604D01*
X7030974Y-641604D01*
X7020559Y-636270D01*
X7005065Y-626110D01*
X6953250Y-574039D01*
X6953250Y-646684D01*
X1792500Y6016317D02*
G01*
X1792500Y5907351D01*
X1792500Y5907351D02*
G01*
X1854730Y5907351D01*
X1889020Y6016317D02*
G01*
X1889020Y5907351D01*
X1889020Y6016317D02*
G01*
X1956584Y6016317D01*
X1889020Y5964501D02*
G01*
X1930676Y5964501D01*
X1889020Y5907351D02*
G01*
X1956584Y5907351D01*
X1990874Y6016317D02*
G01*
X1990874Y5907351D01*
X1990874Y6016317D02*
G01*
X2027450Y6016317D01*
X2042944Y6011237D01*
X2053358Y6000823D01*
X2058438Y5990409D01*
X2063772Y5974661D01*
X2063772Y5948753D01*
X2058438Y5933259D01*
X2053358Y5922845D01*
X2042944Y5912431D01*
X2027450Y5907351D01*
X1990874Y5907351D01*
X4141215Y292100D02*
G01*
X4032250Y292100D01*
X4141215Y292100D02*
G01*
X4141215Y245363D01*
X4136136Y229870D01*
X4130802Y224536D01*
X4120388Y219455D01*
X4109974Y219455D01*
X4099559Y224536D01*
X4094479Y229870D01*
X4089400Y245363D01*
X4089400Y292100D01*
X4089400Y255778D02*
G01*
X4032250Y219455D01*
X4120388Y185165D02*
G01*
X4125722Y174752D01*
X4141215Y159004D01*
X4032250Y159004D01*
X3995674Y124713D02*
G01*
X3995674Y31242D01*
X4120388Y-3047D02*
G01*
X4125722Y-13462D01*
X4141215Y-28955D01*
X4032250Y-28955D01*
X4141215Y-94487D02*
G01*
X4136136Y-78739D01*
X4120388Y-68579D01*
X4094479Y-63245D01*
X4078986Y-63245D01*
X4052824Y-68579D01*
X4037329Y-78739D01*
X4032250Y-94487D01*
X4032250Y-104902D01*
X4037329Y-120395D01*
X4052824Y-130810D01*
X4078986Y-135889D01*
X4094479Y-135889D01*
X4120388Y-130810D01*
X4136136Y-120395D01*
X4141215Y-104902D01*
X4141215Y-94487D01*
X4141215Y-170179D02*
G01*
X4032250Y-170179D01*
X4141215Y-243078D02*
G01*
X4068572Y-170179D01*
X4094479Y-196342D02*
G01*
X4032250Y-243078D01*
X1359915Y5041900D02*
G01*
X1250950Y5041900D01*
X1359915Y5041900D02*
G01*
X1359915Y4995163D01*
X1354836Y4979670D01*
X1349502Y4974336D01*
X1339087Y4969255D01*
X1328673Y4969255D01*
X1318260Y4974336D01*
X1313179Y4979670D01*
X1308100Y4995163D01*
X1308100Y5041900D01*
X1308100Y5005578D02*
G01*
X1250950Y4969255D01*
X1359915Y4882895D02*
G01*
X1287271Y4934965D01*
X1287271Y4856987D01*
X1359915Y4882895D02*
G01*
X1250950Y4882895D01*
X1214373Y4822697D02*
G01*
X1214373Y4729226D01*
X1334007Y4689602D02*
G01*
X1339087Y4689602D01*
X1349502Y4684521D01*
X1354836Y4679187D01*
X1359915Y4668773D01*
X1359915Y4648200D01*
X1354836Y4637786D01*
X1349502Y4632452D01*
X1339087Y4627371D01*
X1328673Y4627371D01*
X1318260Y4632452D01*
X1302765Y4642865D01*
X1250950Y4694936D01*
X1250950Y4622037D01*
X1334007Y4582668D02*
G01*
X1339087Y4582668D01*
X1349502Y4577334D01*
X1354836Y4572254D01*
X1359915Y4561839D01*
X1359915Y4541012D01*
X1354836Y4530597D01*
X1349502Y4525518D01*
X1339087Y4520184D01*
X1328673Y4520184D01*
X1318260Y4525518D01*
X1302765Y4535931D01*
X1250950Y4587747D01*
X1250950Y4515104D01*
X1359915Y4449571D02*
G01*
X1354836Y4465320D01*
X1339087Y4475479D01*
X1313179Y4480813D01*
X1297686Y4480813D01*
X1271523Y4475479D01*
X1256029Y4465320D01*
X1250950Y4449571D01*
X1250950Y4439157D01*
X1256029Y4423663D01*
X1271523Y4413250D01*
X1297686Y4408170D01*
X1313179Y4408170D01*
X1339087Y4413250D01*
X1354836Y4423663D01*
X1359915Y4439157D01*
X1359915Y4449571D01*
X4863084Y-266700D02*
G01*
X4972050Y-266700D01*
X4863084Y-266700D02*
G01*
X4863084Y-219963D01*
X4868163Y-204470D01*
X4873497Y-199136D01*
X4883911Y-194055D01*
X4894325Y-194055D01*
X4904740Y-199136D01*
X4909820Y-204470D01*
X4914900Y-219963D01*
X4914900Y-266700D01*
X4914900Y-230378D02*
G01*
X4972050Y-194055D01*
X4863084Y-97281D02*
G01*
X4863084Y-149352D01*
X4909820Y-154431D01*
X4904740Y-149352D01*
X4899406Y-133604D01*
X4899406Y-118110D01*
X4904740Y-102615D01*
X4914900Y-92202D01*
X4930647Y-86868D01*
X4941061Y-86868D01*
X4956556Y-92202D01*
X4966970Y-102615D01*
X4972050Y-118110D01*
X4972050Y-133604D01*
X4966970Y-149352D01*
X4961890Y-154431D01*
X4951475Y-159765D01*
X5008625Y-52578D02*
G01*
X5008625Y40894D01*
X4888991Y80263D02*
G01*
X4883911Y80263D01*
X4873497Y85597D01*
X4868163Y90678D01*
X4863084Y101092D01*
X4863084Y121920D01*
X4868163Y132334D01*
X4873497Y137413D01*
X4883911Y142747D01*
X4894325Y142747D01*
X4904740Y137413D01*
X4920234Y127000D01*
X4972050Y75184D01*
X4972050Y147828D01*
X4888991Y187452D02*
G01*
X4883911Y187452D01*
X4873497Y192531D01*
X4868163Y197865D01*
X4863084Y208279D01*
X4863084Y228854D01*
X4868163Y239268D01*
X4873497Y244602D01*
X4883911Y249681D01*
X4894325Y249681D01*
X4904740Y244602D01*
X4920234Y234187D01*
X4972050Y182118D01*
X4972050Y255015D01*
X4863084Y320294D02*
G01*
X4868163Y304800D01*
X4883911Y294386D01*
X4909820Y289305D01*
X4925313Y289305D01*
X4951475Y294386D01*
X4966970Y304800D01*
X4972050Y320294D01*
X4972050Y330707D01*
X4966970Y346455D01*
X4951475Y356870D01*
X4925313Y361950D01*
X4909820Y361950D01*
X4883911Y356870D01*
X4868163Y346455D01*
X4863084Y330707D01*
X4863084Y320294D01*
X4202684Y-228600D02*
G01*
X4311650Y-228600D01*
X4202684Y-228600D02*
G01*
X4202684Y-181863D01*
X4207763Y-166370D01*
X4213097Y-161036D01*
X4223511Y-155955D01*
X4233925Y-155955D01*
X4244340Y-161036D01*
X4249420Y-166370D01*
X4254500Y-181863D01*
X4254500Y-228600D01*
X4254500Y-192278D02*
G01*
X4311650Y-155955D01*
X4218177Y-59181D02*
G01*
X4207763Y-64515D01*
X4202684Y-80010D01*
X4202684Y-90423D01*
X4207763Y-105918D01*
X4223511Y-116331D01*
X4249420Y-121665D01*
X4275327Y-121665D01*
X4296156Y-116331D01*
X4306570Y-105918D01*
X4311650Y-90423D01*
X4311650Y-85089D01*
X4306570Y-69595D01*
X4296156Y-59181D01*
X4280661Y-54102D01*
X4275327Y-54102D01*
X4259834Y-59181D01*
X4249420Y-69595D01*
X4244340Y-85089D01*
X4244340Y-90423D01*
X4249420Y-105918D01*
X4259834Y-116331D01*
X4275327Y-121665D01*
X4348225Y-19812D02*
G01*
X4348225Y73660D01*
X4228591Y113284D02*
G01*
X4223511Y113284D01*
X4213097Y118363D01*
X4207763Y123697D01*
X4202684Y134112D01*
X4202684Y154939D01*
X4207763Y165100D01*
X4213097Y170434D01*
X4223511Y175513D01*
X4233925Y175513D01*
X4244340Y170434D01*
X4259834Y160020D01*
X4311650Y107950D01*
X4311650Y180847D01*
X4228591Y220218D02*
G01*
X4223511Y220218D01*
X4213097Y225552D01*
X4207763Y230631D01*
X4202684Y241045D01*
X4202684Y261873D01*
X4207763Y272287D01*
X4213097Y277368D01*
X4223511Y282702D01*
X4233925Y282702D01*
X4244340Y277368D01*
X4259834Y266954D01*
X4311650Y215137D01*
X4311650Y287781D01*
X4202684Y353313D02*
G01*
X4207763Y337820D01*
X4223511Y327405D01*
X4249420Y322071D01*
X4264913Y322071D01*
X4291075Y327405D01*
X4306570Y337820D01*
X4311650Y353313D01*
X4311650Y363728D01*
X4306570Y379221D01*
X4291075Y389636D01*
X4264913Y394970D01*
X4249420Y394970D01*
X4223511Y389636D01*
X4207763Y379221D01*
X4202684Y363728D01*
X4202684Y353313D01*
X3645915Y292100D02*
G01*
X3536950Y292100D01*
X3645915Y292100D02*
G01*
X3645915Y245363D01*
X3640836Y229870D01*
X3635502Y224536D01*
X3625088Y219455D01*
X3614674Y219455D01*
X3604259Y224536D01*
X3599179Y229870D01*
X3594100Y245363D01*
X3594100Y292100D01*
X3594100Y255778D02*
G01*
X3536950Y219455D01*
X3645915Y112268D02*
G01*
X3536950Y164337D01*
X3645915Y185165D02*
G01*
X3645915Y112268D01*
X3500374Y77978D02*
G01*
X3500374Y-15494D01*
X3625088Y-49784D02*
G01*
X3630422Y-60197D01*
X3645915Y-75692D01*
X3536950Y-75692D01*
X3645915Y-141223D02*
G01*
X3640836Y-125729D01*
X3625088Y-115315D01*
X3599179Y-109981D01*
X3583686Y-109981D01*
X3557524Y-115315D01*
X3542029Y-125729D01*
X3536950Y-141223D01*
X3536950Y-151637D01*
X3542029Y-167131D01*
X3557524Y-177545D01*
X3583686Y-182879D01*
X3599179Y-182879D01*
X3625088Y-177545D01*
X3640836Y-167131D01*
X3645915Y-151637D01*
X3645915Y-141223D01*
X3645915Y-217170D02*
G01*
X3536950Y-217170D01*
X3645915Y-289813D02*
G01*
X3573272Y-217170D01*
X3599179Y-243078D02*
G01*
X3536950Y-289813D01*
X1880615Y4965700D02*
G01*
X1771650Y4965700D01*
X1880615Y4965700D02*
G01*
X1880615Y4918963D01*
X1875536Y4903470D01*
X1870202Y4898136D01*
X1859787Y4893055D01*
X1849373Y4893055D01*
X1838960Y4898136D01*
X1833879Y4903470D01*
X1828800Y4918963D01*
X1828800Y4965700D01*
X1828800Y4929378D02*
G01*
X1771650Y4893055D01*
X1854707Y4853431D02*
G01*
X1859787Y4853431D01*
X1870202Y4848352D01*
X1875536Y4843018D01*
X1880615Y4832604D01*
X1880615Y4812029D01*
X1875536Y4801615D01*
X1870202Y4796281D01*
X1859787Y4791202D01*
X1849373Y4791202D01*
X1838960Y4796281D01*
X1823465Y4806695D01*
X1771650Y4858765D01*
X1771650Y4785868D01*
X1735073Y4751578D02*
G01*
X1735073Y4658105D01*
X1859787Y4623815D02*
G01*
X1865121Y4613402D01*
X1880615Y4597907D01*
X1771650Y4597907D01*
X1880615Y4532376D02*
G01*
X1875536Y4547870D01*
X1859787Y4558284D01*
X1833879Y4563618D01*
X1818386Y4563618D01*
X1792223Y4558284D01*
X1776729Y4547870D01*
X1771650Y4532376D01*
X1771650Y4521962D01*
X1776729Y4506468D01*
X1792223Y4496054D01*
X1818386Y4490720D01*
X1833879Y4490720D01*
X1859787Y4496054D01*
X1875536Y4506468D01*
X1880615Y4521962D01*
X1880615Y4532376D01*
X1880615Y4456429D02*
G01*
X1771650Y4456429D01*
X1880615Y4383786D02*
G01*
X1807971Y4456429D01*
X1833879Y4430521D02*
G01*
X1771650Y4383786D01*
X1842515Y3644900D02*
G01*
X1733550Y3644900D01*
X1842515Y3644900D02*
G01*
X1842515Y3598163D01*
X1837436Y3582670D01*
X1832102Y3577336D01*
X1821687Y3572255D01*
X1811273Y3572255D01*
X1800860Y3577336D01*
X1795779Y3582670D01*
X1790700Y3598163D01*
X1790700Y3644900D01*
X1790700Y3608578D02*
G01*
X1733550Y3572255D01*
X1842515Y3527552D02*
G01*
X1842515Y3470402D01*
X1800860Y3501389D01*
X1800860Y3485895D01*
X1795779Y3475481D01*
X1790700Y3470402D01*
X1774952Y3465068D01*
X1764537Y3465068D01*
X1749044Y3470402D01*
X1738629Y3480815D01*
X1733550Y3496310D01*
X1733550Y3511804D01*
X1738629Y3527552D01*
X1743710Y3532631D01*
X1754123Y3537965D01*
X1696973Y3430778D02*
G01*
X1696973Y3337305D01*
X1821687Y3303015D02*
G01*
X1827021Y3292602D01*
X1842515Y3277107D01*
X1733550Y3277107D01*
X1842515Y3211576D02*
G01*
X1837436Y3227070D01*
X1821687Y3237484D01*
X1795779Y3242818D01*
X1780286Y3242818D01*
X1754123Y3237484D01*
X1738629Y3227070D01*
X1733550Y3211576D01*
X1733550Y3201162D01*
X1738629Y3185668D01*
X1754123Y3175254D01*
X1780286Y3169920D01*
X1795779Y3169920D01*
X1821687Y3175254D01*
X1837436Y3185668D01*
X1842515Y3201162D01*
X1842515Y3211576D01*
X1842515Y3135629D02*
G01*
X1733550Y3135629D01*
X1842515Y3062986D02*
G01*
X1769871Y3135629D01*
X1795779Y3109721D02*
G01*
X1733550Y3062986D01*
X1482344Y-370078D02*
G01*
X1471929Y-359663D01*
X1456436Y-354584D01*
X1435607Y-354584D01*
X1420113Y-359663D01*
X1409700Y-370078D01*
X1409700Y-380492D01*
X1414779Y-390905D01*
X1420113Y-396239D01*
X1430528Y-401320D01*
X1461770Y-411734D01*
X1471929Y-416813D01*
X1477263Y-422147D01*
X1482344Y-432562D01*
X1482344Y-448055D01*
X1471929Y-458470D01*
X1456436Y-463550D01*
X1435607Y-463550D01*
X1420113Y-458470D01*
X1409700Y-448055D01*
X1516634Y-354584D02*
G01*
X1516634Y-463550D01*
X1516634Y-354584D02*
G01*
X1584197Y-354584D01*
X1516634Y-406400D02*
G01*
X1558289Y-406400D01*
X1516634Y-463550D02*
G01*
X1584197Y-463550D01*
X1618487Y-354584D02*
G01*
X1618487Y-463550D01*
X1618487Y-354584D02*
G01*
X1665223Y-354584D01*
X1680971Y-359663D01*
X1686052Y-364997D01*
X1691386Y-375412D01*
X1691386Y-385826D01*
X1686052Y-396239D01*
X1680971Y-401320D01*
X1665223Y-406400D01*
X1618487Y-406400D01*
X1654810Y-406400D02*
G01*
X1691386Y-463550D01*
X1725676Y-354584D02*
G01*
X1767078Y-463550D01*
X1808734Y-354584D02*
G01*
X1767078Y-463550D01*
X1843023Y-375412D02*
G01*
X1853437Y-370078D01*
X1868931Y-354584D01*
X1868931Y-463550D01*
X1459484Y114300D02*
G01*
X1568450Y114300D01*
X1485392Y153670D02*
G01*
X1480312Y153670D01*
X1469897Y159004D01*
X1464563Y164084D01*
X1459484Y174497D01*
X1459484Y195326D01*
X1464563Y205739D01*
X1469897Y210820D01*
X1480312Y216154D01*
X1490726Y216154D01*
X1501139Y210820D01*
X1516634Y200660D01*
X1568450Y148589D01*
X1568450Y221234D01*
X1485392Y333502D02*
G01*
X1474978Y328421D01*
X1464563Y318007D01*
X1459484Y307594D01*
X1459484Y286765D01*
X1464563Y276352D01*
X1474978Y265937D01*
X1485392Y260857D01*
X1501139Y255523D01*
X1527047Y255523D01*
X1542542Y260857D01*
X1552955Y265937D01*
X1563370Y276352D01*
X1568450Y286765D01*
X1568450Y307594D01*
X1563370Y318007D01*
X1552955Y328421D01*
X1542542Y333502D01*
X2564384Y254000D02*
G01*
X2673350Y254000D01*
X2564384Y254000D02*
G01*
X2564384Y300989D01*
X2569463Y316484D01*
X2574797Y321563D01*
X2585211Y326897D01*
X2600706Y326897D01*
X2611120Y321563D01*
X2616200Y316484D01*
X2621534Y300989D01*
X2621534Y254000D01*
X2564384Y361187D02*
G01*
X2673350Y361187D01*
X2564384Y361187D02*
G01*
X2564384Y407923D01*
X2569463Y423418D01*
X2574797Y428752D01*
X2585211Y433831D01*
X2600706Y433831D01*
X2611120Y428752D01*
X2616200Y423418D01*
X2621534Y407923D01*
X2621534Y361187D01*
X2043684Y25400D02*
G01*
X2121661Y25400D01*
X2137156Y30479D01*
X2147570Y40894D01*
X2152650Y56642D01*
X2152650Y67055D01*
X2147570Y82550D01*
X2137156Y92963D01*
X2121661Y98044D01*
X2043684Y98044D01*
X2043684Y173989D02*
G01*
X2152650Y132334D01*
X2043684Y173989D02*
G01*
X2152650Y215645D01*
X2116327Y148081D02*
G01*
X2116327Y199897D01*
X2043684Y249936D02*
G01*
X2152650Y249936D01*
X2043684Y249936D02*
G01*
X2043684Y296671D01*
X2048763Y312165D01*
X2054097Y317500D01*
X2064511Y322579D01*
X2074925Y322579D01*
X2085340Y317500D01*
X2090420Y312165D01*
X2095500Y296671D01*
X2095500Y249936D01*
X2095500Y286257D02*
G01*
X2152650Y322579D01*
X2043684Y393192D02*
G01*
X2152650Y393192D01*
X2043684Y356870D02*
G01*
X2043684Y429513D01*
D13*
X2171700Y-533400D02*
G01*
X2933700Y-533400D01*
X2171700Y-535401D02*
G01*
X2171700Y-785401D01*
X2171700Y-785401D02*
G01*
X2933700Y-785401D01*
X2933700Y-535401D02*
G01*
X2933700Y-785401D01*
X812800Y711200D02*
G01*
X1320800Y711200D01*
X1320800Y457200D01*
X812800Y457200D01*
X812800Y711200D01*
X7416800Y596900D02*
G01*
X7416800Y88900D01*
X7162800Y88900D01*
X7162800Y596900D01*
X7416800Y596900D01*
X800100Y114300D02*
G01*
X1308100Y114300D01*
X1308100Y-139700D01*
X800100Y-139700D01*
X800100Y114300D01*
X812800Y3517900D02*
G01*
X1320800Y3517900D01*
X1320800Y3263900D01*
X812800Y3263900D01*
X812800Y3517900D01*
X812800Y2997200D02*
G01*
X1320800Y2997200D01*
X1320800Y2743200D01*
X812800Y2743200D01*
X812800Y2997200D01*
D14*
X7429500Y1333500D02*
G01*
X6845300Y1333500D01*
X6845300Y2146300D01*
X7429500Y2146300D01*
X7493000Y2146300D01*
X7493000Y1333500D01*
X7429500Y1333500D01*
X7429500Y876300D01*
X4635500Y876300D01*
X4635500Y1104900D01*
X4762500Y1104900D01*
X4762500Y2374900D01*
X4635500Y2374900D01*
X4635500Y2603500D01*
X7429500Y2603500D01*
X7429500Y2146300D01*
X889000Y2590800D02*
G01*
X4445000Y2590800D01*
X4445000Y939800D01*
X889000Y939800D01*
X889000Y2590800D01*
D13*
X4191000Y1193800D02*
G01*
X4191000Y1066800D01*
X4127500Y2400300D02*
G01*
X4254500Y2400300D01*
X1143000Y2336800D02*
G01*
X1143000Y2463800D01*
X4191000Y2336800D02*
G01*
X4191000Y2463800D01*
X1143000Y1193800D02*
G01*
X1143000Y1066800D01*
X1079500Y2400300D02*
G01*
X1206500Y2400300D01*
X6852996Y4679899D02*
G01*
X6852996Y3879900D01*
X7362995Y3879900D01*
X6852996Y4679899D02*
G01*
X7362995Y4679899D01*
X4700300Y3434714D02*
G01*
X4700300Y5125051D01*
X2543004Y3434714D02*
G01*
X4700300Y3434714D01*
X2543004Y5125051D02*
G01*
X4698700Y5125051D01*
X1923008Y5126898D02*
G01*
X1923008Y3432901D01*
X2543004Y5126898D02*
G01*
X1923008Y5126898D01*
X2543004Y3432901D02*
G01*
X1923011Y3432901D01*
X2543004Y2882902D02*
G01*
X2543004Y5676897D01*
X7362995Y5676897D02*
G01*
X2543004Y5676897D01*
X7362995Y2882902D02*
G01*
X2543004Y2882902D01*
X7362995Y5676897D02*
G01*
X7362995Y2882902D01*
X5986899Y520700D02*
G01*
X5986899Y-495300D01*
X5626100Y520700D02*
G01*
X5626100Y-495300D01*
X6070600Y-495300D01*
X6070600Y520700D01*
X5626100Y520700D01*
X6774299Y508000D02*
G01*
X6774299Y-508000D01*
X6413500Y508000D02*
G01*
X6413500Y-508000D01*
X6858000Y-508000D01*
X6858000Y508000D01*
X6413500Y508000D01*
X1854202Y5511802D02*
G01*
X1955802Y5511802D01*
X1854202Y5765797D02*
G01*
X1955802Y5765797D01*
X1905002Y5816597D02*
G01*
X1905002Y5702297D01*
X1506247Y5482635D02*
G01*
X1627400Y5482635D01*
X1506247Y5772360D02*
G01*
X1627400Y5772360D01*
X1624911Y5857491D02*
G01*
X2264915Y5857491D01*
X2264915Y5397497D01*
X1624911Y5397497D01*
X1624911Y5857491D01*
X3797300Y444500D02*
G01*
X3797300Y571500D01*
X3797300Y-571500D02*
G01*
X3797300Y-444500D01*
X3972306Y444489D02*
G01*
X3972306Y-444510D01*
X3622293Y-444510D01*
X3622293Y444489D01*
X3972306Y444489D01*
X977900Y5143500D02*
G01*
X977900Y5270500D01*
X977900Y4127500D02*
G01*
X977900Y4254500D01*
X1152905Y5143489D02*
G01*
X1152905Y4254489D01*
X802894Y4254489D01*
X802894Y5143489D01*
X1152905Y5143489D01*
X5207000Y-457200D02*
G01*
X5207000Y-584200D01*
X5207000Y558800D02*
G01*
X5207000Y431800D01*
X5031993Y-457189D02*
G01*
X5031993Y431810D01*
X5382006Y431810D01*
X5382006Y-457189D01*
X5031993Y-457189D01*
X4533900Y-444500D02*
G01*
X4533900Y-571500D01*
X4533900Y571500D02*
G01*
X4533900Y444500D01*
X4358893Y-444489D02*
G01*
X4358893Y444510D01*
X4708906Y444510D01*
X4708906Y-444489D01*
X4358893Y-444489D01*
X3289300Y444500D02*
G01*
X3289300Y571500D01*
X3289300Y-571500D02*
G01*
X3289300Y-444500D01*
X3464306Y444489D02*
G01*
X3464306Y-444510D01*
X3114293Y-444510D01*
X3114293Y444489D01*
X3464306Y444489D01*
X1587500Y4483112D02*
G01*
X1587500Y4305300D01*
X1587500Y4965712D02*
G01*
X1587500Y5143500D01*
X1712493Y4959388D02*
G01*
X1712493Y4489386D01*
X1462481Y4489386D01*
X1462481Y4959388D01*
X1712493Y4959388D01*
X1574800Y3187712D02*
G01*
X1574800Y3009900D01*
X1574800Y3670312D02*
G01*
X1574800Y3848100D01*
X1699793Y3663988D02*
G01*
X1699793Y3193986D01*
X1449781Y3193986D01*
X1449781Y3663988D01*
X1699793Y3663988D01*
X1270000Y-533400D02*
G01*
X2032000Y-533400D01*
X1270000Y-535401D02*
G01*
X1270000Y-785401D01*
X1270000Y-785401D02*
G01*
X2032000Y-785401D01*
X2032000Y-535401D02*
G01*
X2032000Y-785401D01*
X1864898Y-19999D02*
G01*
X1614898Y-19999D01*
X1864898Y527999D02*
G01*
X1864898Y-19999D01*
X1614898Y527999D02*
G01*
X1864898Y527999D01*
X1614898Y-19999D02*
G01*
X1614898Y527999D01*
X2681701Y152400D02*
G01*
X2931698Y152400D01*
X2931698Y-126598D02*
G01*
X2931698Y685398D01*
X2681701Y-126598D02*
G01*
X2931698Y-126598D01*
X2681701Y685398D02*
G01*
X2681701Y-126598D01*
X2931698Y685398D02*
G01*
X2681701Y685398D01*
X2209800Y2352D02*
G01*
X2209800Y762000D01*
X2463800Y762000D01*
X2463800Y-254000D01*
X2209800Y-254000D01*
X2209800Y2352D01*
X2209800Y2352D02*
G01*
X2463800Y2352D01*
D15*
G75*
G01*
X5557520Y289560D02*
G03*
X5557520Y289306I-20000J-127D01*
G75*
G01*
X6344920Y276860D02*
G03*
X6344920Y276606I-20000J-127D01*
D13*
G75*
G01*
X1506248Y5772363D02*
G03*
X1506248Y5482636I6305J-144863D01*
M02*
